<svg width="1080" height="1920" viewBox="0 0 1080 1920" fill="none" xmlns="http://www.w3.org/2000/svg">
<path d="M233.329 1920C229.716 1929.36 220.634 1936 210 1936C199.366 1936 190.284 1929.36 186.671 1920H233.329ZM1081 1281C1076.82 1277.86 1071.63 1276 1066 1276C1052.19 1276 1041 1287.19 1041 1301C1041 1314.81 1052.19 1326 1066 1326C1071.63 1326 1076.82 1324.14 1081 1321V1920H233.329C234.407 1917.21 235 1914.17 235 1911C235 1897.19 223.807 1886 210 1886C196.193 1886 185 1897.19 185 1911C185 1914.17 185.593 1917.21 186.671 1920H-2L-2 1267.35C2.54729 1272.06 8.93027 1275 16 1275C29.8071 1275 41 1263.81 41 1250C41 1236.19 29.8071 1225 16 1225C8.93052 1225 2.54725 1227.94 -2 1232.65V1200H1081V1281ZM423 1861C409.193 1861 398 1872.19 398 1886C398 1899.81 409.193 1911 423 1911C436.807 1911 448 1899.81 448 1886C448 1872.19 436.807 1861 423 1861ZM867 1821C853.193 1821 842 1832.19 842 1846C842 1859.81 853.193 1871 867 1871C880.807 1871 892 1859.81 892 1846C892 1832.19 880.807 1821 867 1821ZM66 1786C52.1929 1786 41 1797.19 41 1811C41 1824.81 52.1929 1836 66 1836C79.8071 1836 91 1824.81 91 1811C91 1797.19 79.8071 1786 66 1786ZM975 1761C961.193 1761 950 1772.19 950 1786C950 1799.81 961.193 1811 975 1811C988.807 1811 1000 1799.81 1000 1786C1000 1772.19 988.807 1761 975 1761ZM743 1725C729.193 1725 718 1736.19 718 1750C718 1763.81 729.193 1775 743 1775C756.807 1775 768 1763.81 768 1750C768 1736.19 756.807 1725 743 1725ZM619 1723C605.193 1723 594 1734.19 594 1748C594 1761.81 605.193 1773 619 1773C632.807 1773 644 1761.81 644 1748C644 1734.19 632.807 1723 619 1723ZM262 1696C248.193 1696 237 1707.19 237 1721C237 1734.81 248.193 1746 262 1746C275.807 1746 287 1734.81 287 1721C287 1707.19 275.807 1696 262 1696ZM125 1650C111.193 1650 100 1661.19 100 1675C100 1688.81 111.193 1700 125 1700C138.807 1700 150 1688.81 150 1675C150 1661.19 138.807 1650 125 1650ZM41 1625C27.1929 1625 16 1636.19 16 1650C16 1663.81 27.1929 1675 41 1675C54.8071 1675 66 1663.81 66 1650C66 1636.19 54.8071 1625 41 1625ZM471 1625C457.193 1625 446 1636.19 446 1650C446 1663.81 457.193 1675 471 1675C484.807 1675 496 1663.81 496 1650C496 1636.19 484.807 1625 471 1625ZM914 1625C900.193 1625 889 1636.19 889 1650C889 1663.81 900.193 1675 914 1675C927.807 1675 939 1663.81 939 1650C939 1636.19 927.807 1625 914 1625ZM1011 1617C997.193 1617 986 1628.19 986 1642C986 1655.81 997.193 1667 1011 1667C1024.81 1667 1036 1655.81 1036 1642C1036 1628.19 1024.81 1617 1011 1617ZM323 1602C309.193 1602 298 1613.19 298 1627C298 1640.81 309.193 1652 323 1652C336.807 1652 348 1640.81 348 1627C348 1613.19 336.807 1602 323 1602ZM634 1552C620.193 1552 609 1563.19 609 1577C609 1590.81 620.193 1602 634 1602C647.807 1602 659 1590.81 659 1577C659 1563.19 647.807 1552 634 1552ZM743 1552C729.193 1552 718 1563.19 718 1577C718 1590.81 729.193 1602 743 1602C756.807 1602 768 1590.81 768 1577C768 1563.19 756.807 1552 743 1552ZM1041 1535C1027.19 1535 1016 1546.19 1016 1560C1016 1573.81 1027.19 1585 1041 1585C1054.81 1585 1066 1573.81 1066 1560C1066 1546.19 1054.81 1535 1041 1535ZM273 1502C259.193 1502 248 1513.19 248 1527C248 1540.81 259.193 1552 273 1552C286.807 1552 298 1540.81 298 1527C298 1513.19 286.807 1502 273 1502ZM864 1477C850.193 1477 839 1488.19 839 1502C839 1515.81 850.193 1527 864 1527C877.807 1527 889 1515.81 889 1502C889 1488.19 877.807 1477 864 1477ZM293 1440C279.193 1440 268 1451.19 268 1465C268 1478.81 279.193 1490 293 1490C306.807 1490 318 1478.81 318 1465C318 1451.19 306.807 1440 293 1440ZM100 1427C86.1929 1427 75 1438.19 75 1452C75 1465.81 86.1929 1477 100 1477C113.807 1477 125 1465.81 125 1452C125 1438.19 113.807 1427 100 1427ZM398 1415C384.193 1415 373 1426.19 373 1440C373 1453.81 384.193 1465 398 1465C411.807 1465 423 1453.81 423 1440C423 1426.19 411.807 1415 398 1415ZM609 1415C595.193 1415 584 1426.19 584 1440C584 1453.81 595.193 1465 609 1465C622.807 1465 634 1453.81 634 1440C634 1426.19 622.807 1415 609 1415ZM66 1390C52.1929 1390 41 1401.19 41 1415C41 1428.81 52.1929 1440 66 1440C79.8071 1440 91 1428.81 91 1415C91 1401.19 79.8071 1390 66 1390ZM768 1390C754.193 1390 743 1401.19 743 1415C743 1428.81 754.193 1440 768 1440C781.807 1440 793 1428.81 793 1415C793 1401.19 781.807 1390 768 1390ZM779 1301C765.193 1301 754 1312.19 754 1326C754 1339.81 765.193 1351 779 1351C792.807 1351 804 1339.81 804 1326C804 1312.19 792.807 1301 779 1301ZM431 1276C417.193 1276 406 1287.19 406 1301C406 1314.81 417.193 1326 431 1326C444.807 1326 456 1314.81 456 1301C456 1287.19 444.807 1276 431 1276ZM649 1276C635.193 1276 624 1287.19 624 1301C624 1314.81 635.193 1326 649 1326C662.807 1326 674 1314.81 674 1301C674 1287.19 662.807 1276 649 1276ZM1081 1281C1087.07 1285.56 1091 1292.82 1091 1301C1091 1309.18 1087.07 1316.44 1081 1321V1281ZM222 1267C208.193 1267 197 1278.19 197 1292C197 1305.81 208.193 1317 222 1317C235.807 1317 247 1305.81 247 1292C247 1278.19 235.807 1267 222 1267ZM-2 1267.35C-6.33352 1262.85 -9 1256.74 -9 1250C-9 1243.26 -6.3338 1237.15 -2 1232.65V1267.35Z" fill="#FFE092"/>
<circle cx="326" cy="963" r="25" fill="#FFE092"/>
<circle cx="713" cy="166" r="25" fill="#FFE092"/>
<circle cx="1001" cy="988" r="25" fill="#FFE092"/>
<circle cx="79" cy="874" r="25" fill="#FFE092"/>
<circle cx="202" cy="141" r="25" fill="#FFE092"/>
<circle cx="227" cy="175" r="25" fill="#FFE092"/>
<circle cx="804" cy="783" r="25" fill="#FFE092"/>
</svg>
