<svg preserveAspectRatio="none" width="100%" height="100%" overflow="visible" style="display: block;" viewBox="0 0 126.589 45.8258" fill="none" xmlns="http://www.w3.org/2000/svg">
<g id="Group 129">
<path id="Rectangle 390 (Stroke)" d="M1.35732 0.034912C3.93638 -0.0569963 5.02002 0.0443243 7.11427 0.206237C10.9818 0.199785 14.8494 0.19336 18.7169 0.186908C19.0687 0.249726 19.4207 0.312547 19.7725 0.375365V0.375804C21.2578 0.448312 21.8875 0.286456 22.6886 0.249727C30.3574 -0.101934 45.4512 0.173187 53.8938 0.212826C55.7131 0.221256 61.6311 0.136719 62.8796 0.238745C63.2027 0.265315 63.2928 0.361893 63.6365 0.36614C66.7086 0.308528 69.7808 0.251109 72.8529 0.193497C79.1702 0.344026 85.7013 0.219763 92.0668 0.196572C103.371 0.155332 114.602 0.108108 125.776 0.087188L126.54 0.0823558L126.546 0.856831C126.557 6.70575 126.56 12.5392 126.552 18.3596C126.548 21.6335 126.62 25.7881 126.573 28.9932C126.554 30.3308 126.398 30.8883 126.514 32.6455C126.473 32.6639 126.431 32.6824 126.389 32.7008C126.439 34.2342 126.535 35.2142 126.544 36.9334C126.552 38.3812 126.559 42.2117 126.543 43.4912C126.535 44.1548 126.456 43.9077 126.456 44.5262C126.457 44.6492 126.458 44.7886 126.461 44.9409L126.466 45.6214L125.776 45.6257C124.617 45.6463 122.699 45.7312 121.407 45.7312C120.083 45.7312 117.851 45.6408 116.833 45.6539C113.167 45.7002 109.174 45.8342 105.267 45.7984C104.188 45.7882 102.8 45.6866 102.462 45.6894C101.802 45.6953 101.605 45.794 101.162 45.8067C98.9095 45.8708 95.3983 45.7534 93.1905 45.7487C85.9963 45.7336 78.3749 45.7765 71.2117 45.7584C66.6862 45.747 59.1655 45.7645 54.9872 45.6903C54.0862 45.6743 54.3262 45.566 53.5696 45.566C52.7308 45.566 52.2765 45.6392 51.8845 45.6451C49.1709 45.6864 43.1807 45.7601 40.6188 45.6855C40.131 45.6712 39.7771 45.5868 39.485 45.5871C39.3371 45.5871 39.0029 45.6449 38.5387 45.6508C34.4395 45.7031 31.4505 45.6693 27.4338 45.6495C19.7411 45.6119 10.8277 45.7195 2.74637 45.6613C2.13283 45.6569 1.58648 45.6334 1.1245 45.6051L0.464678 45.6095L0.460285 44.9409C0.513181 44.0774 0.583881 43.5087 0.582848 43.3471C0.57947 42.8038 0.466589 42.4558 0.43876 41.3554C0.347289 37.6966 0.467564 32.7688 0.411084 29.2888C0.383251 27.5696 0.240214 25.207 0.20857 23.5152C0.183278 22.1639 0.239271 18.9729 0.176501 18.3737C0.138566 18.0093 0.0169153 17.8406 0.00166202 17.4042C-0.0118242 17.0019 0.0610787 16.4342 0.0649204 15.9598C0.081786 13.9722 0.132452 13.2356 0.161126 11.4372C0.203713 8.77067 0.107796 0.857031 0.614478 0.856831C0.619392 0.856841 0.624385 0.857519 0.629414 0.859028C0.725921 0.886762 0.83129 1.55974 0.940434 1.65986C1.04964 1.75959 1.75478 1.68481 1.79442 2.64081C1.84665 4.02696 1.66604 7.35227 1.67406 8.09157C1.67958 8.59698 1.7435 9.21918 1.75489 9.86544C1.79156 11.9492 1.74465 13.0396 1.91874 14.9169C1.82699 15.6678 1.73549 16.4191 1.64374 17.17C1.68626 18.1497 1.56507 19.6343 1.5717 20.2297C1.57718 20.718 1.64959 21.0044 1.65297 21.5133C1.65716 22.0842 1.57923 22.9609 1.59103 23.9993C1.61 25.7016 1.79894 26.0047 1.82298 27.026C1.84783 28.0852 1.74496 29.7324 1.81155 31.0838C1.83237 31.2532 1.85356 31.4226 1.87437 31.5921C1.92143 31.4707 1.96833 31.3492 2.01539 31.2279C2.03729 31.9084 1.94072 32.2012 1.93895 32.8265C1.93684 33.5624 2.02855 33.9382 2.02813 34.4334C2.02768 34.8391 1.95412 35.3892 1.95872 35.9151C1.96505 36.6819 2.07112 36.5142 2.09095 36.9268C2.09864 37.0915 2.15732 40.1359 2.15816 40.3076C2.16232 41.6136 2.01708 41.7275 2.0044 42.769C1.99931 43.1949 1.99835 43.6224 1.99913 44.0504C3.88174 44.0218 5.74203 43.9628 7.47845 43.934C8.67162 43.9142 9.91688 43.9227 11.1066 43.9459C9.23278 44.3169 13.3793 44.6055 11.8288 44.025C13.1523 44.1075 14.091 43.951 15.3458 43.9775C16.1573 43.9948 16.719 44.0754 17.8779 44.0733C19.9342 44.069 22.1837 43.8402 22.7751 44.2538C25.1888 44.1809 27.2794 44.3307 28.1494 43.9657C28.7719 43.9433 30.3673 44.161 31.0655 44.1906C31.7257 44.2184 36.7916 44.3164 37.6206 44.3219C38.4494 44.3274 39.9 44.3333 40.5982 44.3013C41.4751 44.2616 42.0882 43.8831 43.6495 44.3259C45.4647 44.29 46.1117 44.3026 47.7999 44.354C48.1055 44.3633 48.1402 44.429 48.3188 44.4291C48.6866 44.4291 49.3126 44.3806 49.9692 44.3746C51.0489 44.365 51.6649 44.5033 51.5445 44.292C52.2564 44.2566 52.9685 44.2212 53.6803 44.1857C53.9301 44.2265 54.18 44.2671 54.4298 44.3079C54.8103 44.2634 55.1909 44.2192 55.5715 44.1748C55.1247 44.4804 57.8029 44.3001 56.9338 44.1247C58.3137 44.1879 59.6937 44.2512 61.0737 44.3145C60.8818 44.6617 64.1037 44.3544 63.8324 44.1655C63.9904 44.1658 64.1485 44.1661 64.3064 44.1664C65.6888 44.2587 66.9582 44.1831 68.6431 44.245C70.3279 44.307 70.1701 44.3409 70.6823 44.5007C71.0788 44.4916 71.4755 44.4826 71.872 44.4735C73.9525 44.0354 73.5848 44.7937 77.1474 44.4577C78.2857 44.733 81.0918 44.5882 82.9523 44.5047C83.1686 44.495 83.1724 44.4416 83.4605 44.4252C84.1653 44.3855 85.964 44.4542 85.903 44.2819C86.5256 44.3318 87.1483 44.3819 87.7709 44.4317C88.2797 44.4004 88.7886 44.3691 89.2974 44.3377C89.2949 44.2839 89.2925 44.2299 89.29 44.1761C90.3148 44.3595 91.9252 44.289 92.7195 44.3329C92.8774 44.3418 92.9119 44.4159 93.4031 44.4361C93.9774 44.4602 95.0475 44.4384 95.7318 44.4616C95.9978 44.3794 96.2639 44.297 96.53 44.2147C97.7537 44.1701 98.184 44.3872 98.9026 44.4041C99.0328 44.407 101.393 44.3916 101.52 44.3869C102.561 44.3502 102.266 44.165 105.278 44.2046C105.814 44.2118 106.248 44.2759 106.732 44.2784C107.588 44.2831 110.169 44.138 110.372 44.0039C111.41 44.1717 114.188 44.103 115.007 44.1515C115.254 44.1664 115.31 44.2732 116.069 44.296C116.685 44.3146 118.27 44.229 119.051 44.2433C119.879 44.2589 120.175 44.3489 120.547 44.3553C120.897 44.3612 121.221 44.2886 121.699 44.289C122.991 44.2912 124.177 44.3783 125.238 44.4032C125.2 42.9371 125.023 41.615 124.939 40.3551C124.953 40.001 124.999 39.6528 124.999 39.2815C125.006 34.6872 125.046 29.5047 125.092 24.8968C125.113 22.7576 125.404 17.4381 124.918 18.8578C124.833 18.1144 125.029 12.7088 125.032 11.6806C125.035 10.6529 124.947 9.83815 124.946 9.03034C124.942 6.59213 125.005 4.87499 124.929 1.90718C124.929 1.87883 124.927 1.85044 124.926 1.82196C124.876 1.82362 124.828 1.82559 124.785 1.82548C124.238 1.82377 123.649 1.72376 122.941 1.71741C121.253 1.70307 118.106 1.73601 116.486 1.71873C116.191 1.71533 116.087 1.62753 115.664 1.60012C114.017 1.49302 112.17 1.50245 112.497 1.78242C110.386 1.62348 108.433 1.76827 106.476 1.77715C102.339 1.79528 94.8027 1.73024 91.1987 1.84788C88.9265 1.92209 88.9845 2.04759 85.639 1.93925C84.8963 1.91522 84.1567 1.8827 83.2558 1.85403C81.1444 1.78656 79.2075 1.55476 77.5982 1.83426C75.2531 1.76176 73.3852 1.81326 71.6453 1.5742C71.4402 1.63153 71.2349 1.68863 71.0298 1.74596C70.7424 1.74738 70.4549 1.74894 70.1675 1.75036C70.0778 1.69567 69.9879 1.64074 69.8982 1.58606C67.8386 1.57135 65.2257 1.79635 63.4823 1.79472C60.5593 1.79219 53.0306 1.70466 50.2587 1.63087C48.7872 1.59168 48.7078 1.70903 47.8654 1.46833C47.5363 1.48508 47.207 1.50166 46.8779 1.51841C46.6719 1.57112 46.4657 1.62384 46.2598 1.67655C44.3719 1.67866 42.1326 1.59664 40.3341 1.59748C37.0569 1.59917 32.1358 1.74416 28.8448 1.64888C28.0197 1.62485 26.9881 1.51632 26.1801 1.51753C25.004 1.51922 24.7179 1.69954 23.2254 1.70291C20.6531 1.70839 15.8627 1.49888 13.4313 1.51489C12.7092 1.51954 12.3722 1.58679 11.8736 1.59397C9.78276 1.62475 8.06613 1.6194 6.06129 1.72312C3.90867 1.55025 4.09429 1.32711 3.42728 1.10196C2.92168 0.932018 1.37142 0.537827 1.1513 0.388983C0.996729 0.284435 1.57363 0.15 1.35732 0.034912ZM20.4526 44.0957C20.2388 44.0721 19.1745 44.1167 19.1123 44.1673C18.8728 44.3619 21.4014 44.2002 20.4526 44.0957ZM125.174 33.2029C125.197 33.535 125.22 33.8672 125.243 34.1993C125.277 34.0126 125.31 33.8258 125.343 33.6392C125.342 33.4705 125.342 33.3017 125.341 33.1331C125.285 33.1563 125.229 33.1798 125.174 33.2029Z" fill="var(--fill-0, #4E4E4E)"/>
<path id="Rectangle 393 (Stroke)" d="M44.5839 0.034833C46.0825 -0.057074 46.7122 0.0442457 47.9291 0.206158C50.1765 0.199706 52.424 0.193281 54.6714 0.186829C54.8758 0.249642 55.0802 0.312473 55.2846 0.375286V0.375725C56.1477 0.448231 56.5136 0.286384 56.979 0.249648C61.4352 -0.102011 70.2059 0.173106 75.1117 0.212747C76.1688 0.221177 79.6075 0.136658 80.3332 0.238665C80.521 0.26524 80.5736 0.361845 80.7734 0.366061C82.5584 0.308453 84.3434 0.251026 86.1284 0.193418C89.7993 0.343949 93.5946 0.219684 97.2935 0.196493C106.869 0.13638 116.352 0.0637208 125.776 0.0778838L126.546 0.0690979L126.555 0.856752C126.554 1.28209 126.553 1.70736 126.552 2.13246C126.548 4.03477 126.62 6.44876 126.573 8.31114C126.554 9.08842 126.398 9.41271 126.514 10.4338C126.473 10.4445 126.431 10.4552 126.389 10.4659C126.439 11.3569 126.535 11.9265 126.544 12.9255C126.552 13.7669 126.559 15.9925 126.543 16.7359C126.535 17.1215 126.456 16.9779 126.456 17.3373C126.457 17.4088 126.459 17.49 126.461 17.5785L126.469 18.2554L125.776 18.2633C125.102 18.2839 123.988 18.3683 123.237 18.3683C122.468 18.3683 121.171 18.2784 120.579 18.2915C118.449 18.3378 116.129 18.4714 113.859 18.4356C113.232 18.4254 112.425 18.3238 112.229 18.3266C111.845 18.3325 111.731 18.4312 111.473 18.4439C110.165 18.508 108.124 18.391 106.841 18.3863C102.661 18.3712 98.2323 18.4141 94.0699 18.396C91.4402 18.3846 87.0697 18.4017 84.6418 18.3275C84.1185 18.3114 84.2579 18.2036 83.8186 18.2036C83.3313 18.2036 83.0671 18.2767 82.8394 18.2827C81.2626 18.324 77.7817 18.3977 76.293 18.3231C76.0096 18.3088 75.8038 18.224 75.6341 18.2243C75.5482 18.2243 75.3538 18.282 75.0841 18.2879C72.7021 18.3402 70.9653 18.3064 68.6313 18.2866C64.1612 18.2491 58.9816 18.3567 54.2857 18.2985C53.263 18.2858 52.5616 18.1186 52.4174 18.1201C52.1017 18.1235 51.8993 18.236 51.2598 18.2638C49.203 18.3523 46.4562 18.2427 44.4486 18.2866L43.7483 18.295L43.74 17.5785C43.7385 17.5109 43.737 17.444 43.7352 17.3782C43.7073 16.3792 43.5643 15.0064 43.5326 14.0233C43.5073 13.238 43.5634 11.3832 43.5006 11.0352C43.4626 10.8236 43.341 10.7255 43.3257 10.472C43.3123 10.2384 43.3851 9.90861 43.389 9.63297C43.4059 8.47801 43.4565 8.04966 43.4852 7.00468C43.5278 5.45504 43.4319 0.856868 43.9385 0.856752C43.9435 0.856757 43.9484 0.857191 43.9535 0.85807C44.05 0.874183 44.1554 1.26498 44.2645 1.32328C44.3737 1.38123 45.0789 1.33796 45.1185 1.89349C45.1707 2.699 44.9901 4.63122 44.9981 5.0608C45.0037 5.35444 45.0676 5.71593 45.079 6.09138C45.1156 7.30219 45.0687 7.9359 45.2428 9.02675C45.1511 9.46306 45.0596 9.89953 44.9678 10.3358C45.0104 10.9052 44.8891 11.7682 44.8958 12.1141C44.9013 12.3979 44.9737 12.5643 44.977 12.86C44.9812 13.1917 44.9033 13.7011 44.9151 14.3044C44.9341 15.2935 45.123 15.4696 45.147 16.0629C45.1567 16.301 45.147 16.5904 45.1356 16.9011C45.1881 16.8981 45.24 16.8953 45.2911 16.891C45.3896 16.8702 45.4883 16.8494 45.5868 16.8286C45.5162 16.7815 45.4456 16.7342 45.375 16.6872C45.7705 16.6652 45.9407 16.7618 46.3041 16.7636C46.7318 16.7657 46.9499 16.6744 47.2376 16.6749C47.4734 16.6753 47.793 16.7484 48.0987 16.7438C48.5441 16.7375 48.4469 16.6319 48.6864 16.612C48.7821 16.6043 50.5503 16.5457 50.651 16.5448C51.4099 16.5407 51.4761 16.6855 52.0813 16.6981C53.7599 16.7327 55.483 16.6159 57.0357 16.5716C57.729 16.5518 58.4525 16.5603 59.1438 16.5835C58.055 16.9545 60.4645 17.2431 59.5634 16.6626C60.3325 16.7452 60.8779 16.5882 61.607 16.6147C62.0786 16.632 62.4052 16.7125 63.0786 16.7104C64.2734 16.7062 65.58 16.4776 65.9239 16.891C67.3265 16.8181 68.5417 16.9683 69.0473 16.6033C69.409 16.581 70.336 16.7982 70.7416 16.8277C71.1255 16.8556 74.0692 16.9536 74.5508 16.9591C75.0324 16.9646 75.8755 16.9709 76.2811 16.9389C76.7906 16.8992 77.1467 16.5205 78.0537 16.963C79.1085 16.9272 79.4845 16.9402 80.4654 16.9916C80.643 17.0009 80.6635 17.0667 80.7672 17.0667C80.981 17.0667 81.3447 17.0177 81.7262 17.0118C82.3536 17.0021 82.7116 17.1404 82.6417 16.9292C83.0553 16.8938 83.469 16.8583 83.8827 16.8229C84.0278 16.8637 84.1729 16.9047 84.318 16.9455C84.5392 16.901 84.7606 16.8564 84.9818 16.8119C84.722 17.1176 86.2784 16.9372 85.773 16.7618C86.5749 16.8251 87.3771 16.8884 88.179 16.9516C88.0671 17.2989 89.9383 16.9921 89.782 16.8031C89.8736 16.8034 89.9653 16.8033 90.057 16.8036C90.8603 16.8959 91.5981 16.8207 92.5772 16.8826C93.5563 16.9446 93.4647 16.9785 93.7624 17.1383C93.9928 17.1292 94.2231 17.1198 94.4534 17.1106C95.6624 16.6726 95.4488 17.4312 97.5188 17.0953C98.1803 17.3706 99.8111 17.2258 100.892 17.1423C101.018 17.1325 101.02 17.0792 101.187 17.0628C101.597 17.0231 102.641 17.0916 102.607 16.9195C102.968 16.9694 103.33 17.019 103.692 17.0689C103.988 17.0376 104.283 17.0062 104.579 16.9749C104.578 16.9212 104.576 16.8674 104.575 16.8137C105.17 16.997 106.106 16.9262 106.567 16.9701C106.659 16.979 106.679 17.0535 106.965 17.0737C107.298 17.0978 107.92 17.0756 108.318 17.0988C108.473 17.0166 108.627 16.9345 108.782 16.8523C109.493 16.8078 109.743 17.0248 110.16 17.0417C110.236 17.0446 111.607 17.0287 111.681 17.0241C112.286 16.9874 112.115 16.8026 113.865 16.8422C114.177 16.8494 114.429 16.9135 114.71 16.916C115.208 16.9207 116.707 16.7755 116.825 16.6415C117.429 16.8092 119.043 16.7406 119.519 16.7891C119.662 16.804 119.695 16.9109 120.136 16.9336C120.494 16.9521 121.414 16.8666 121.868 16.8809C122.349 16.8965 122.522 16.9861 122.737 16.9925C122.941 16.9984 123.129 16.9262 123.407 16.9266C124.062 16.9285 124.67 16.9953 125.224 17.0289C125.168 16.2706 125.015 15.5773 124.939 14.9137C124.953 14.7079 124.999 14.5057 124.999 14.2899C125.006 11.6203 125.046 8.60865 125.092 5.93104C125.113 4.688 125.404 1.59692 124.918 2.42196C124.897 2.31388 124.894 2.03618 124.9 1.6712C124.134 1.63672 123.424 1.60218 123.171 1.60092C122.574 1.59799 122.1 1.68529 121.63 1.68658C120.214 1.69037 119.216 1.62738 117.491 1.70327C117.046 1.72314 116.569 1.82657 116.305 1.8254C115.988 1.82371 115.645 1.72367 115.234 1.71733C114.253 1.703 112.424 1.73593 111.483 1.71865C111.311 1.71526 111.251 1.62744 111.005 1.60004C110.048 1.49295 108.975 1.50237 109.165 1.78235C107.938 1.6234 106.803 1.76818 105.666 1.77707C103.262 1.79521 98.8834 1.73016 96.7892 1.8478C95.4687 1.92202 95.5023 2.04753 93.5581 1.93917C93.1266 1.91514 92.6969 1.88262 92.1735 1.85395C90.9466 1.78648 89.821 1.55466 88.8858 1.83418C87.5232 1.76169 86.4379 1.81318 85.4268 1.57412C85.3077 1.63144 85.1884 1.68857 85.0692 1.74588C84.9022 1.7473 84.735 1.74886 84.568 1.75028C84.5159 1.6956 84.4637 1.64066 84.4116 1.58598C83.2148 1.57128 81.6963 1.79628 80.6833 1.79465C78.9847 1.79211 74.6104 1.70458 72.9996 1.63079C72.1446 1.59161 72.0983 1.70894 71.6088 1.46825C71.4176 1.485 71.2263 1.50158 71.0351 1.51833C70.9154 1.57105 70.7954 1.62376 70.6758 1.67648C69.5788 1.67857 68.2776 1.59656 67.2326 1.5974C65.3282 1.59909 62.4685 1.74409 60.5562 1.6488C60.0767 1.62476 59.4772 1.51622 59.0077 1.51745C58.3243 1.51916 58.1581 1.69946 57.2909 1.70283C55.7962 1.70831 53.0126 1.4988 51.5998 1.51482C51.1802 1.51946 50.9842 1.58672 50.6945 1.59389C49.4796 1.62466 48.4821 1.61932 47.3172 1.72304C46.0664 1.55018 46.1742 1.32702 45.7867 1.10188C45.4929 0.931936 44.5918 0.537742 44.4639 0.388904C44.3746 0.28437 44.7096 0.149871 44.5839 0.034833ZM64.5748 16.7328C64.4507 16.7093 63.8329 16.7539 63.796 16.8045C63.6561 16.9992 65.1258 16.8374 64.5748 16.7328ZM125.174 10.7576C125.197 10.9505 125.22 11.1436 125.243 11.3366C125.277 11.2281 125.31 11.1195 125.343 11.011C125.342 10.9131 125.342 10.8151 125.341 10.7172C125.285 10.7306 125.229 10.7441 125.174 10.7576Z" fill="var(--fill-0, #4E4E4E)"/>
<path id="Rectangle 392 (Stroke)" d="M1.35732 0.034912C3.93638 -0.0569963 5.02002 0.0443243 7.11427 0.206237C10.9818 0.199785 14.8494 0.19336 18.7169 0.186908C19.0687 0.249726 19.4207 0.312547 19.7725 0.375365V0.375804C21.2578 0.448312 21.8875 0.286456 22.6886 0.249727C30.3574 -0.101934 45.4512 0.173187 53.8938 0.212826C55.7131 0.221256 61.6311 0.136719 62.8796 0.238745C63.2027 0.265315 63.2928 0.361893 63.6365 0.36614C66.7086 0.308528 69.7808 0.251109 72.8529 0.193497C79.1702 0.344026 85.7013 0.219763 92.0668 0.196572C103.371 0.155332 114.602 0.108108 125.776 0.087188L126.54 0.0823558L126.546 0.856831C126.557 6.70575 126.56 12.5392 126.552 18.3596C126.548 21.6335 126.62 25.7881 126.573 28.9932C126.554 30.3308 126.398 30.8883 126.514 32.6455C126.473 32.6639 126.431 32.6824 126.389 32.7008C126.439 34.2342 126.535 35.2142 126.544 36.9334C126.552 38.3812 126.559 42.2117 126.543 43.4912C126.535 44.1548 126.456 43.9077 126.456 44.5262C126.457 44.6492 126.458 44.7886 126.461 44.9409L126.466 45.6214L125.776 45.6257C124.617 45.6463 122.699 45.7312 121.407 45.7312C120.083 45.7312 117.851 45.6408 116.833 45.6539C113.167 45.7002 109.174 45.8342 105.267 45.7984C104.188 45.7882 102.8 45.6866 102.462 45.6894C101.802 45.6953 101.605 45.794 101.162 45.8067C98.9095 45.8708 95.3983 45.7534 93.1905 45.7487C85.9963 45.7336 78.3749 45.7765 71.2117 45.7584C66.6862 45.747 59.1655 45.7645 54.9872 45.6903C54.0862 45.6743 54.3262 45.566 53.5696 45.566C52.7308 45.566 52.2765 45.6392 51.8845 45.6451C49.1709 45.6864 43.1807 45.7601 40.6188 45.6855C40.131 45.6712 39.7771 45.5868 39.485 45.5871C39.3371 45.5871 39.0029 45.6449 38.5387 45.6508C34.4395 45.7031 31.4505 45.6693 27.4338 45.6495C19.7411 45.6119 10.8277 45.7195 2.74637 45.6613C2.13283 45.6569 1.58648 45.6334 1.1245 45.6051L0.464678 45.6095L0.460285 44.9409C0.513181 44.0774 0.583881 43.5087 0.582848 43.3471C0.57947 42.8038 0.466589 42.4558 0.43876 41.3554C0.347289 37.6966 0.467564 32.7688 0.411084 29.2888C0.383251 27.5696 0.240214 25.207 0.20857 23.5152C0.183278 22.1639 0.239271 18.9729 0.176501 18.3737C0.138566 18.0093 0.0169153 17.8406 0.00166202 17.4042C-0.0118242 17.0019 0.0610787 16.4342 0.0649204 15.9598C0.081786 13.9722 0.132452 13.2356 0.161126 11.4372C0.203713 8.77067 0.107796 0.857031 0.614478 0.856831C0.619392 0.856841 0.624385 0.857519 0.629414 0.859028C0.725921 0.886762 0.83129 1.55974 0.940434 1.65986C1.04964 1.75959 1.75478 1.68481 1.79442 2.64081C1.84665 4.02696 1.66604 7.35227 1.67406 8.09157C1.67958 8.59698 1.7435 9.21918 1.75489 9.86544C1.79156 11.9492 1.74465 13.0396 1.91874 14.9169C1.82699 15.6678 1.73549 16.4191 1.64374 17.17C1.68626 18.1497 1.56507 19.6343 1.5717 20.2297C1.57718 20.718 1.64959 21.0044 1.65297 21.5133C1.65716 22.0842 1.57923 22.9609 1.59103 23.9993C1.61 25.7016 1.79894 26.0047 1.82298 27.026C1.84783 28.0852 1.74496 29.7324 1.81155 31.0838C1.83237 31.2532 1.85356 31.4226 1.87437 31.5921C1.92143 31.4707 1.96833 31.3492 2.01539 31.2279C2.03729 31.9084 1.94072 32.2012 1.93895 32.8265C1.93684 33.5624 2.02855 33.9382 2.02813 34.4334C2.02768 34.8391 1.95412 35.3892 1.95872 35.9151C1.96505 36.6819 2.07112 36.5142 2.09095 36.9268C2.09864 37.0915 2.15732 40.1359 2.15816 40.3076C2.16232 41.6136 2.01708 41.7275 2.0044 42.769C1.99931 43.1949 1.99835 43.6224 1.99913 44.0504C3.88174 44.0218 5.74203 43.9628 7.47845 43.934C8.67162 43.9142 9.91688 43.9227 11.1066 43.9459C9.23278 44.3169 13.3793 44.6055 11.8288 44.025C13.1523 44.1075 14.091 43.951 15.3458 43.9775C16.1573 43.9948 16.719 44.0754 17.8779 44.0733C19.9342 44.069 22.1837 43.8402 22.7751 44.2538C25.1888 44.1809 27.2794 44.3307 28.1494 43.9657C28.7719 43.9433 30.3673 44.161 31.0655 44.1906C31.7257 44.2184 36.7916 44.3164 37.6206 44.3219C38.4494 44.3274 39.9 44.3333 40.5982 44.3013C41.4751 44.2616 42.0882 43.8831 43.6495 44.3259C45.4647 44.29 46.1117 44.3026 47.7999 44.354C48.1055 44.3633 48.1402 44.429 48.3188 44.4291C48.6866 44.4291 49.3126 44.3806 49.9692 44.3746C51.0489 44.365 51.6649 44.5033 51.5445 44.292C52.2564 44.2566 52.9685 44.2212 53.6803 44.1857C53.9301 44.2265 54.18 44.2671 54.4298 44.3079C54.8103 44.2634 55.1909 44.2192 55.5715 44.1748C55.1247 44.4804 57.8029 44.3001 56.9338 44.1247C58.3137 44.1879 59.6937 44.2512 61.0737 44.3145C60.8818 44.6617 64.1037 44.3544 63.8324 44.1655C63.9904 44.1658 64.1485 44.1661 64.3064 44.1664C65.6888 44.2587 66.9582 44.1831 68.6431 44.245C70.3279 44.307 70.1701 44.3409 70.6823 44.5007C71.0788 44.4916 71.4755 44.4826 71.872 44.4735C73.9525 44.0354 73.5848 44.7937 77.1474 44.4577C78.2857 44.733 81.0918 44.5882 82.9523 44.5047C83.1686 44.495 83.1724 44.4416 83.4605 44.4252C84.1653 44.3855 85.964 44.4542 85.903 44.2819C86.5256 44.3318 87.1483 44.3819 87.7709 44.4317C88.2797 44.4004 88.7886 44.3691 89.2974 44.3377C89.2949 44.2839 89.2925 44.2299 89.29 44.1761C90.3148 44.3595 91.9252 44.289 92.7195 44.3329C92.8774 44.3418 92.9119 44.4159 93.4031 44.4361C93.9774 44.4602 95.0475 44.4384 95.7318 44.4616C95.9978 44.3794 96.2639 44.297 96.53 44.2147C97.7537 44.1701 98.184 44.3872 98.9026 44.4041C99.0328 44.407 101.393 44.3916 101.52 44.3869C102.561 44.3502 102.266 44.165 105.278 44.2046C105.814 44.2118 106.248 44.2759 106.732 44.2784C107.588 44.2831 110.169 44.138 110.372 44.0039C111.41 44.1717 114.188 44.103 115.007 44.1515C115.254 44.1664 115.31 44.2732 116.069 44.296C116.685 44.3146 118.27 44.229 119.051 44.2433C119.879 44.2589 120.175 44.3489 120.547 44.3553C120.897 44.3612 121.221 44.2886 121.699 44.289C122.991 44.2912 124.177 44.3783 125.238 44.4032C125.2 42.9371 125.023 41.615 124.939 40.3551C124.953 40.001 124.999 39.6528 124.999 39.2815C125.006 34.6872 125.046 29.5047 125.092 24.8968C125.113 22.7576 125.404 17.4381 124.918 18.8578C124.833 18.1144 125.029 12.7088 125.032 11.6806C125.035 10.6529 124.947 9.83815 124.946 9.03034C124.942 6.59213 125.005 4.87499 124.929 1.90718C124.929 1.87883 124.927 1.85044 124.926 1.82196C124.876 1.82362 124.828 1.82559 124.785 1.82548C124.238 1.82377 123.649 1.72376 122.941 1.71741C121.253 1.70307 118.106 1.73601 116.486 1.71873C116.191 1.71533 116.087 1.62753 115.664 1.60012C114.017 1.49302 112.17 1.50245 112.497 1.78242C110.386 1.62348 108.433 1.76827 106.476 1.77715C102.339 1.79528 94.8027 1.73024 91.1987 1.84788C88.9265 1.92209 88.9845 2.04759 85.639 1.93925C84.8963 1.91522 84.1567 1.8827 83.2558 1.85403C81.1444 1.78656 79.2075 1.55476 77.5982 1.83426C75.2531 1.76176 73.3852 1.81326 71.6453 1.5742C71.4402 1.63153 71.2349 1.68863 71.0298 1.74596C70.7424 1.74738 70.4549 1.74894 70.1675 1.75036C70.0778 1.69567 69.9879 1.64074 69.8982 1.58606C67.8386 1.57135 65.2257 1.79635 63.4823 1.79472C60.5593 1.79219 53.0306 1.70466 50.2587 1.63087C48.7872 1.59168 48.7078 1.70903 47.8654 1.46833C47.5363 1.48508 47.207 1.50166 46.8779 1.51841C46.6719 1.57112 46.4657 1.62384 46.2598 1.67655C44.3719 1.67866 42.1326 1.59664 40.3341 1.59748C37.0569 1.59917 32.1358 1.74416 28.8448 1.64888C28.0197 1.62485 26.9881 1.51632 26.1801 1.51753C25.004 1.51922 24.7179 1.69954 23.2254 1.70291C20.6531 1.70839 15.8627 1.49888 13.4313 1.51489C12.7092 1.51954 12.3722 1.58679 11.8736 1.59397C9.78276 1.62475 8.06613 1.6194 6.06129 1.72312C3.90867 1.55025 4.09429 1.32711 3.42728 1.10196C2.92168 0.932018 1.37142 0.537827 1.1513 0.388983C0.996729 0.284435 1.57363 0.15 1.35732 0.034912ZM20.4526 44.0957C20.2388 44.0721 19.1745 44.1167 19.1123 44.1673C18.8728 44.3619 21.4014 44.2002 20.4526 44.0957ZM125.174 33.2029C125.197 33.535 125.22 33.8672 125.243 34.1993C125.277 34.0126 125.31 33.8258 125.343 33.6392C125.342 33.4705 125.342 33.3017 125.341 33.1331C125.285 33.1563 125.229 33.1798 125.174 33.2029Z" fill="var(--fill-0, #4E4E4E)"/>
<path id="Rectangle 391 (Stroke)" d="M1.24487 0.0349167C2.58092 -0.0570018 3.14236 0.044327 4.22723 0.206241C6.2307 0.199789 8.23419 0.193365 10.2377 0.186912C10.4199 0.24974 10.6023 0.312542 10.7846 0.37537V0.375809C11.5539 0.448305 11.88 0.286496 12.2949 0.249732C16.2675 -0.101931 24.0866 0.173194 28.46 0.212831C29.4024 0.221261 32.4681 0.136714 33.1148 0.238749C33.2822 0.265324 33.3289 0.361928 33.5071 0.366144C35.0983 0.308537 36.6896 0.25111 38.2809 0.193502C40.3098 0.286828 42.3814 0.274585 44.4486 0.246217L45.0513 0.23831L45.0592 0.856836C45.0766 2.12391 45.1 3.38958 45.1088 4.64267C45.1717 13.5639 45.248 22.3961 45.2248 31.1712C45.2202 32.8671 45.2927 35.0192 45.2459 36.6795C45.2265 37.3724 45.0711 37.6613 45.187 38.5716C45.1451 38.5811 45.1029 38.5906 45.0609 38.6001C45.1116 39.3945 45.2072 39.9024 45.2169 40.7931C45.2249 41.5432 45.2312 43.5274 45.2151 44.1901C45.2071 44.5337 45.1287 44.4057 45.129 44.7261C45.1292 44.7898 45.1307 44.862 45.1334 44.9409L45.1422 45.617L44.4486 45.6257C43.848 45.6463 42.8545 45.7312 42.1853 45.7312C41.4995 45.7312 40.3431 45.6408 39.8158 45.6539C37.9168 45.7002 35.8483 45.8342 33.8247 45.7984C33.2657 45.7882 32.5466 45.6866 32.3715 45.6894C32.0296 45.6953 31.9277 45.794 31.6981 45.8067C30.5313 45.8708 28.7124 45.7534 27.5687 45.7488C23.8419 45.7336 19.8938 45.7765 16.1831 45.7584C13.8387 45.747 9.94288 45.7645 7.77849 45.6903C7.31188 45.6743 7.43622 45.566 7.04443 45.566C6.60999 45.566 6.37457 45.6391 6.17155 45.6451C4.99847 45.6796 2.64311 45.7368 1.1245 45.7114L0.36408 45.7211L0.353976 44.9409C0.359017 44.6398 0.367546 44.3715 0.379895 44.1519C0.394236 43.8992 0.47857 43.7159 0.478297 43.5646C0.478297 43.488 0.420506 43.3148 0.414599 43.0743C0.362314 40.9509 0.396099 39.4025 0.415917 37.3218C0.453436 33.3369 0.345879 28.7197 0.404056 24.5335C0.416699 23.6219 0.584346 22.9964 0.582849 22.8677C0.57947 22.5862 0.466589 22.4058 0.43876 21.8358C0.347293 19.9404 0.467564 17.3878 0.411085 15.5851C0.383246 14.6945 0.240217 13.4707 0.20857 12.5943C0.183275 11.8944 0.239273 10.2413 0.176502 9.9309C0.138573 9.74216 0.0169527 9.65475 0.00166248 9.42878C-0.0118259 9.22042 0.0610791 8.92602 0.0649209 8.68023C0.0817886 7.65083 0.132454 7.26929 0.161126 6.33791C0.203717 4.95662 0.107792 0.856944 0.614478 0.856836C0.619406 0.856844 0.624371 0.857369 0.629414 0.858154C0.725915 0.872522 0.831298 1.22096 0.940434 1.27285C1.04964 1.32452 1.75479 1.28587 1.79442 1.78111C1.84662 2.49921 1.66606 4.2214 1.67406 4.60445C1.67958 4.86627 1.7435 5.18868 1.75489 5.52346C1.79156 6.60291 1.74464 7.1678 1.91874 8.14033C1.82702 8.52924 1.73547 8.9182 1.64374 9.3071C1.68628 9.81465 1.56504 10.5842 1.5717 10.8925C1.57719 11.1454 1.64957 11.2936 1.65297 11.5572C1.65716 11.8529 1.57923 12.3073 1.59103 12.8452C1.61002 13.7269 1.79894 13.884 1.82298 14.413C1.84782 14.9617 1.74496 15.815 1.81155 16.515C1.83236 16.6028 1.85357 16.6904 1.87437 16.7782C1.92139 16.7154 1.96837 16.6525 2.01539 16.5897C2.03726 16.9422 1.9407 17.0938 1.93895 17.4178C1.93684 17.799 2.02855 17.9937 2.02813 18.2503C2.02765 18.4604 1.95412 18.7453 1.95872 19.0177C1.96506 19.4149 2.07113 19.328 2.09095 19.5418C2.09864 19.6271 2.15724 21.202 2.15816 21.2928C2.16233 21.9694 2.01708 22.0285 2.00441 22.5681C1.96983 24.0645 2.08709 25.6006 2.13136 26.9847C2.15117 27.6028 2.14269 28.2478 2.1195 28.864C1.74846 27.8933 1.45982 30.0413 2.04043 29.2379C1.95783 29.9236 2.11437 30.41 2.08787 31.0601C2.07057 31.4804 1.99 31.7715 1.9921 32.3718C1.99637 33.437 2.22516 34.6019 1.81155 34.9083C1.88446 36.1587 1.7347 37.2418 2.09973 37.6925C2.12204 38.015 1.90436 38.8416 1.87481 39.2033C1.84697 39.5459 1.74894 42.1697 1.74346 42.599C1.73798 43.0284 1.73208 43.7798 1.76411 44.1414C1.76774 44.183 1.77501 44.2233 1.78344 44.2631C1.82287 44.2818 1.86358 44.3029 1.90556 44.3259C2.84582 44.2901 3.18092 44.3026 4.05547 44.354C4.21378 44.3633 4.23183 44.429 4.32432 44.4291C4.5149 44.4291 4.83912 44.3806 5.17918 44.3746C5.73841 44.365 6.05761 44.5031 5.99539 44.2921C6.36412 44.2566 6.73281 44.2212 7.10154 44.1857C7.23091 44.2265 7.3605 44.2671 7.48987 44.3079C7.68696 44.2635 7.88408 44.2192 8.08116 44.1748C7.85 44.4803 9.2372 44.3001 8.78667 44.1247C9.50156 44.1879 10.2169 44.2512 10.9317 44.3145C10.8322 44.6617 12.5008 44.3544 12.3608 44.1655C12.4425 44.1658 12.5242 44.1661 12.6059 44.1664C13.322 44.2588 13.98 44.1831 14.8529 44.245C15.7254 44.307 15.6437 44.341 15.9089 44.5007C16.1143 44.4916 16.3199 44.4826 16.5253 44.4735C17.6031 44.0354 17.4126 44.7937 19.2581 44.4577C19.8478 44.733 21.3014 44.5882 22.2651 44.5047C22.3771 44.495 22.3791 44.4417 22.5282 44.4252C22.8934 44.3855 23.8253 44.4543 23.7934 44.2819C24.1159 44.3318 24.4386 44.3819 24.7612 44.4317C25.0247 44.4004 25.2883 44.3691 25.5519 44.3377C25.5506 44.2839 25.5493 44.2299 25.5479 44.1761C26.0788 44.3595 26.9129 44.2891 27.3244 44.3329C27.4063 44.3418 27.4241 44.4159 27.6785 44.4361C27.976 44.4602 28.5308 44.4384 28.8853 44.4616C29.0231 44.3794 29.1608 44.297 29.2986 44.2147C29.9325 44.1702 30.1555 44.3872 30.5278 44.4041C30.5972 44.407 31.8176 44.3916 31.8834 44.3869C32.4227 44.3502 32.2701 44.165 33.83 44.2046C34.1077 44.2118 34.3323 44.2758 34.5833 44.2784C35.0269 44.2831 36.3637 44.138 36.4688 44.0039C37.0068 44.1717 38.4458 44.103 38.87 44.1515C38.9979 44.1664 39.0271 44.2733 39.4204 44.296C39.7393 44.3145 40.5606 44.229 40.965 44.2433C41.3941 44.2589 41.5476 44.349 41.7399 44.3553C41.9215 44.3611 42.089 44.2886 42.3364 44.289C42.8944 44.2908 43.4144 44.3513 43.8902 44.3861C43.83 43.7354 43.6851 43.1381 43.6113 42.5656C43.6252 42.3822 43.6715 42.2018 43.6719 42.0095C43.6787 39.6296 43.7182 36.9447 43.7642 34.5577C43.7853 33.4496 44.0767 30.694 43.5906 31.4295C43.5055 31.0445 43.7014 28.2449 43.7044 27.7118C43.7073 27.1793 43.62 26.757 43.6187 26.3385C43.615 25.0756 43.6779 24.1861 43.6021 22.6489C43.5822 22.2519 43.4787 21.8262 43.4799 21.5911C43.4816 21.3079 43.5817 21.003 43.588 20.6361C43.6023 19.7615 43.5694 18.1318 43.5867 17.2926C43.5901 17.1394 43.6779 17.0851 43.7053 16.866C43.8123 16.0129 43.8029 15.0566 43.523 15.2257C43.6819 14.132 43.5367 13.1203 43.5278 12.1067C43.5097 9.96365 43.5752 6.05976 43.4575 4.19284C43.3915 3.1463 43.2851 3.05405 43.3385 1.82812C42.3735 1.74371 41.4879 1.58323 40.7392 1.83427C39.5244 1.76177 38.5567 1.81326 37.6553 1.5742C37.5492 1.63148 37.443 1.68869 37.3368 1.74597C37.1879 1.74739 37.039 1.74894 36.8901 1.75036C36.8436 1.69568 36.7968 1.64075 36.7504 1.58606C35.6836 1.57137 34.3302 1.79633 33.4271 1.79473C31.9129 1.7922 28.0126 1.70466 26.5768 1.63087C25.8146 1.5917 25.7734 1.70903 25.3371 1.46833C25.1666 1.48508 24.9962 1.50167 24.8257 1.51841C24.719 1.57113 24.6122 1.62384 24.5055 1.67656C23.5275 1.67867 22.3674 1.59665 21.4357 1.59749C19.738 1.59918 17.1889 1.74416 15.4841 1.64888C15.0567 1.62485 14.5221 1.51631 14.1034 1.51753C13.4944 1.51926 13.3463 1.69951 12.5734 1.70292C11.2409 1.7084 8.75901 1.49888 7.49954 1.5149C7.1255 1.51955 6.95084 1.5868 6.69255 1.59397C5.60951 1.62475 4.72016 1.6194 3.68163 1.72312C2.56658 1.55025 2.66277 1.32712 2.31718 1.10196C2.05525 0.932011 1.25212 0.537821 1.13812 0.388988C1.05855 0.284448 1.35702 0.149947 1.24487 0.0349167ZM43.8463 38.8602C43.8694 39.0322 43.8926 39.2043 43.9157 39.3763C43.9491 39.2797 43.9824 39.183 44.0159 39.0864C44.0149 38.9991 44.0142 38.9115 44.0132 38.8242C43.9577 38.8361 43.9019 38.8482 43.8463 38.8602ZM1.8981 33.0114C1.70332 32.8868 1.86513 34.1969 1.9697 33.7055C1.99325 33.5948 1.94866 33.0436 1.8981 33.0114Z" fill="var(--fill-0, #4E4E4E)"/>
</g>
</svg>
