<svg preserveAspectRatio="none" width="100%" height="100%" overflow="visible" style="display: block;" viewBox="0 0 129.594 129.175" fill="none" xmlns="http://www.w3.org/2000/svg">
<g id="Stamp border">
<path id="Ellipse 9 (Stroke)" d="M52.7321 4.32917C55.463 3.6083 61.3614 2.79853 64.6379 3.00233C64.9705 3.01587 65.2749 3.0353 65.5452 3.0599C66.1052 3.11137 66.5019 3.37885 66.8336 3.38946C67.0019 3.3953 67.3869 3.2352 67.9176 3.2452C72.61 3.36563 76.0143 4.00938 80.4448 5.21593C88.9244 7.50378 98.3408 12.065 105.159 18.3751C106.651 19.7368 107.27 21.0747 107.473 21.265C107.916 21.6923 108.441 21.7288 109.366 22.5859C112.473 25.4274 115.564 30.1986 117.679 33.5572C118.752 35.2022 120.383 37.4238 121.264 39.1749C122.006 40.562 123.15 44.0708 123.526 44.6729C123.769 45.0358 124.18 45.1075 124.379 45.5801C124.562 46.0187 124.544 46.7122 124.685 47.2458C125.264 49.4912 125.308 50.3561 125.643 52.4168C126.321 55.4367 127.127 64.6064 125.468 64.5913C125.454 64.5913 125.439 64.5904 125.423 64.5886C125.134 64.5555 124.811 63.7983 124.479 63.6933C124.146 63.5887 122.032 63.6941 121.882 62.6841C121.709 61.2232 121.918 57.6329 121.761 56.844C121.672 56.3088 121.384 55.6802 121.235 55.003C120.747 52.8352 120.624 51.6513 119.613 49.8584C119.674 49.017 119.717 48.1715 119.74 47.3199C119.308 46.3511 119.122 44.7324 118.87 44.1342C118.668 43.6464 118.352 43.4387 118.138 42.9364C117.897 42.3756 117.75 41.4097 117.249 40.4071C116.42 38.7692 115.749 38.7402 115.183 37.813C114.594 36.8539 113.99 35.1707 113.044 34.0582C112.894 33.9391 112.744 33.8213 112.594 33.7042C112.545 33.8893 112.495 34.074 112.444 34.258C112.002 33.6897 112.076 33.2729 111.709 32.7208C111.275 32.0719 110.819 31.9079 110.516 31.4846C110.267 31.138 110.1 30.5396 109.75 30.1055C109.239 29.4745 109.095 29.8129 108.779 29.5099C108.668 29.3719 106.471 27.0532 106.334 26.9383C105.404 25.9389 105.635 25.5546 104.893 24.7419C102.82 22.4947 100.195 20.7232 97.861 19.1831C96.8183 18.4922 95.7574 17.7375 94.7415 17.0112C97.0292 17.1363 93.7353 14.0414 94.2247 16.4063C93.163 15.4645 92.0643 15.3833 90.9436 14.6977C90.2154 14.2568 89.7951 13.7675 88.687 13.2511C86.7077 12.3256 84.2681 12.1421 84.0997 10.7622C81.6215 10.0947 79.5749 9.08677 78.4158 9.93099C77.7768 9.83296 76.2734 8.82506 75.5596 8.60283C74.9082 8.32347 69.5848 7.31348 68.6905 7.30313C67.8021 7.21962 66.2581 7.14095 65.5068 7.23099C65.2021 7.26523 64.9261 7.40862 64.6379 7.54269C64.0323 7.82418 63.3946 8.05668 62.2377 7.19989C60.3006 7.39943 59.6217 7.41945 57.8019 7.46724C57.4733 7.47827 57.4119 7.2873 57.2215 7.31107C56.8276 7.36129 56.1869 7.59606 55.4923 7.72533C54.353 7.93786 53.6287 7.66143 53.8737 8.2607C53.1505 8.5066 52.4265 8.76849 51.715 9.0429C51.429 8.98306 51.142 8.92506 50.854 8.86952C50.4926 9.09649 50.1334 9.32785 49.7773 9.56238C49.9952 8.53741 47.3842 9.8526 48.43 10.1004C46.9774 10.3331 45.5262 10.6242 44.0796 10.9752C43.8866 9.90427 41.018 12.0958 41.5371 12.5119C41.3836 12.5791 41.2305 12.6471 41.0778 12.7157C39.6277 13.0729 38.5134 13.8763 36.8584 14.5805C35.2027 15.3015 35.3047 15.1449 34.582 15.014C34.2301 15.26 33.8811 15.5099 33.5357 15.7631C32.4094 18.0917 31.3956 15.9356 28.9292 19.0891C27.4399 19.1834 25.371 21.5156 24.1307 23.1073C23.9843 23.2917 24.0939 23.4091 23.909 23.6626C23.4504 24.2734 21.9762 25.5432 22.4082 25.849C21.8481 26.237 21.2929 26.6364 20.7432 27.0475C20.459 27.5246 20.182 28.0049 19.9133 28.4875C20.0411 28.5873 20.1693 28.6874 20.2971 28.7873C19.1767 29.2844 18.3063 30.7981 17.7143 31.4151C17.595 31.5378 17.3903 31.4379 17.0393 31.838C16.626 32.3056 16.0467 33.3013 15.598 33.8901C15.6555 34.2646 15.7163 34.638 15.7813 35.0085C15.2274 36.1877 14.44 36.2652 14.0203 36.919C13.9328 37.0317 12.8137 39.3004 12.7775 39.4383C12.4067 40.4992 12.9883 40.4226 11.6539 43.3268C11.422 43.8468 11.0765 44.2093 10.8889 44.6927C10.5389 45.5403 10.1153 48.2944 10.4594 48.6084C9.64435 49.5105 9.14645 52.4255 8.85129 53.25C8.75669 53.4971 8.4256 53.4906 8.21136 54.275C8.0324 54.9134 8.02634 56.6244 7.88776 57.4416C7.73371 58.3107 7.43495 58.6042 7.37688 58.9947C7.3235 59.3661 7.51047 59.7288 7.47085 60.2369C7.34375 61.8301 6.95008 63.2525 6.9421 64.533C6.94197 64.5525 6.94206 64.5719 6.9421 64.5913C6.94665 66.4161 7.66182 67.9778 8.06974 69.4393C8.05953 69.8157 7.95516 70.1927 7.99497 70.5862C8.46105 75.4422 9.64658 80.8434 11.3309 85.4639C12.015 87.6245 13.8733 93.1049 14.4736 91.0644C14.9971 91.6649 17.4713 96.8404 18.1749 97.7065C18.8036 98.6008 19.5372 99.1301 20.0688 99.7971C21.6868 101.798 22.7516 103.309 25.1545 105.345C25.7783 105.867 26.626 106.224 26.9776 106.544C27.4005 106.93 27.6685 107.565 28.2304 108.062C29.5559 109.26 32.2895 111.158 33.7045 112.115C33.9604 112.294 33.9093 112.575 34.2451 112.885C35.5522 114.101 37.3091 115.023 37.407 114.115C39.1294 115.61 41.2032 116.111 43.1081 116.868C47.097 118.607 54.8309 120.672 58.6609 120.586C61.0538 120.578 60.9969 120.242 64.4837 120.624C64.535 120.629 64.5865 120.634 64.6379 120.639C65.3672 120.709 66.1035 120.788 66.9858 120.833C69.1959 120.947 71.3418 121.421 72.8974 120.34C75.3746 120.193 77.2479 119.618 79.2112 119.85C79.3788 119.627 79.5435 119.403 79.7062 119.179C79.9975 119.095 80.2879 119.008 80.5771 118.919C80.714 119.05 80.8517 119.182 80.9901 119.312C83.1161 118.736 85.4738 117.131 87.1411 116.399C90.0236 115.317 96.9899 111.481 99.3818 109.733C100.689 108.864 100.517 108.534 101.673 108.514C101.91 108.249 102.144 107.981 102.375 107.712C102.436 107.447 102.494 107.183 102.55 106.92C104.035 105.588 105.888 104.077 107.159 102.645C109.525 100.062 112.216 95.5791 114.143 92.6778C114.639 91.955 115.446 91.1424 115.831 90.3683C116.386 89.2387 116.03 88.7363 116.66 87.2924C117.778 84.8332 119.971 80.1845 120.463 77.6161C120.622 76.862 120.498 76.4656 120.583 75.9431C120.925 73.7534 121.201 71.9395 121.086 69.8C121.793 67.5814 122.424 67.7892 123.141 67.104C123.683 66.5881 124.898 64.8821 125.341 64.6217C125.656 64.4445 126.06 65.1067 126.408 64.8599C126.651 67.8337 126.246 69.0903 125.517 71.4094C125.051 75.7963 124.108 80.136 122.706 84.3237C122.397 84.6432 122.086 84.9577 121.773 85.2667L121.772 85.2661C120.991 86.767 121.166 87.5986 120.914 88.4842C118.947 97.2968 107.04 110.795 98.6241 115.535C96.9486 116.753 91.1074 120.204 89.6393 120.42C89.2702 120.497 89.0593 120.271 88.6969 120.414C85.5742 121.951 82.3042 123.224 78.9333 124.207C74.2549 125.021 69.4639 125.647 64.6379 125.741C62.1238 125.791 59.6261 125.699 57.1527 125.422C37.5525 123.361 19.5041 111.099 10.3905 93.8696C8.59447 90.5758 6.54522 86.2273 5.62585 82.6475C5.24162 81.1582 5.51457 80.4234 4.7113 78.5558C4.82954 78.5067 4.94835 78.4578 5.06667 78.4089C4.53124 76.7365 4.03238 75.6946 3.7041 73.7421C3.3937 72.116 3.00542 67.7151 3.05623 66.2569C3.06282 65.4958 3.3041 65.7749 3.29513 65.0671C3.29361 64.9261 3.28803 64.7662 3.27991 64.5913C3.21055 63.2603 3.03668 61.0635 3.1641 59.5778C3.27255 58.0655 3.87176 55.5568 4.0363 54.4054C4.57931 50.2547 5.41358 45.6714 7.2035 41.5262C7.6907 40.3821 8.62824 39.0489 8.78511 38.6985C9.08834 38.0067 8.92037 37.675 9.11202 37.1983C10.0685 34.7656 12.4448 31.445 13.9224 29.3928C18.6523 22.6179 25.0436 16.377 32.095 12.0943C36.4654 9.25503 44.4943 5.83358 49.2393 4.98232C50.2502 4.77653 50.0603 5.15902 50.899 4.96247C51.8299 4.74994 52.2982 4.43343 52.7321 4.32917ZM7.91489 76.7095C7.95567 76.8874 7.99757 77.065 8.03997 77.2422C8.19808 77.1814 8.35621 77.1206 8.51445 77.0602C8.36962 76.7283 8.22755 76.3916 8.08894 76.057C8.02948 76.2719 7.97152 76.4912 7.91489 76.7095ZM87.6156 12.4523C88.09 12.0066 85.4134 11.4143 86.2266 12.0943C86.4081 12.2422 87.493 12.5617 87.6156 12.4523Z" fill="var(--fill-0, #4E4E4E)"/>
<path id="Ellipse 10 (Stroke)" d="M64.6373 0.00295831C66.8602 0.0231783 69.0914 0.164058 71.202 0.382148C71.3346 0.395615 71.3344 0.324766 71.4792 0.339134C72.4259 0.435039 73.3644 0.652155 74.2103 0.777221C75.6217 0.988434 76.693 1.08132 78.073 1.37082C80.7716 1.94738 83.1286 2.64988 85.809 3.57714C87.9944 4.34374 89.8712 5.0874 92.1712 6.16728C102.209 10.8792 111.334 18.2687 117.653 27.5369C117.814 27.7723 117.696 27.7134 117.748 27.7831C118.239 28.4466 118.347 28.4639 118.364 28.8049C118.972 29.6608 119.266 29.868 119.925 30.9576C120.271 31.5401 119.838 31.2093 120.509 32.1415C121.099 32.9937 120.672 31.9288 122.025 34.6965C122.059 34.7709 122.135 35.1822 122.45 35.7388C122.763 36.301 122.523 35.5904 123.217 36.975C124.843 40.2347 126.358 44.6066 127.408 48.7008C127.486 48.9503 128.121 51.4301 128.235 51.9209C128.479 52.8663 128.537 52.6478 128.773 53.8989C128.951 54.8726 128.963 55.6799 129.122 56.8252C129.14 56.9584 129.278 57.1701 129.352 58.0376C129.431 58.891 129.653 60.879 129.579 61.9704C129.564 62.2403 129.237 63.1428 129.19 63.1384C129.034 63.1136 128.984 62.0341 128.912 63.1954C128.903 62.8051 128.885 62.4274 128.867 62.0419C128.765 62.115 128.664 62.188 128.562 62.2576C128.594 62.7245 128.621 63.1938 128.644 63.6639C128.61 63.6874 128.575 63.7106 128.541 63.734C128.507 62.0483 128.394 63.0455 128.243 62.1802C128.209 62.9814 128.161 63.7902 128.098 64.591C128.106 64.1288 128.106 63.5846 128.106 63.1788C127.928 63.1284 127.986 64.0945 127.951 64.2615C127.796 65.1889 127.774 60.4602 127.443 60.0897C127.468 60.8445 127.481 61.637 127.479 62.4032C127.44 62.1843 127.399 61.9625 127.357 61.7448C127.458 59.9913 127.359 58.0345 127.193 55.9947C127.161 55.8133 127.128 55.6315 127.095 55.4534C127.023 55.5181 126.951 55.5796 126.879 55.644C126.831 55.3711 126.781 55.0984 126.728 54.8241C127.111 55.5945 126.952 54.4698 126.862 53.0896C127.087 53.7914 127.173 54.6963 127.334 54.6077C126.817 52.1397 126.355 49.2275 125.52 46.9107C125.312 46.3382 125.11 46.406 124.695 45.0425C124.733 45.0807 124.778 45.0751 124.818 45.0948C123.945 42.7879 123.359 41.4205 122.436 39.0331C122.422 39.2007 122.407 39.3663 122.392 39.5334C122.645 40.0147 122.891 40.4976 123.13 40.982C123.141 41.374 122.897 40.8858 123.477 42.3909C123.939 43.6306 123.719 42.8721 123.88 43.1962C124.095 43.6357 124.137 44.0736 124.36 44.5508C124.531 44.921 124.501 44.4685 124.799 45.4866C124.535 45.1228 124.261 44.7566 123.988 44.4C123.936 44.1469 123.883 43.8955 123.828 43.6429C123.95 43.8747 124.069 44.1037 124.189 44.3378C123.829 43.4929 123.474 42.7033 123.065 41.8475C123.367 42.0599 122.942 41.1751 122.716 40.6954C122.364 39.9475 122.766 40.5461 122.534 40.0555C122.299 39.564 121.923 39.0901 121.543 38.1893C121.846 38.6269 121.621 37.9448 121.755 38.0345C121.891 38.1246 122.34 39.0631 122.007 38.1152C121.124 36.4059 121.727 38.4256 121.123 37.2814C120.386 35.916 120.664 35.3526 120.98 35.7137C121.23 35.9979 121.775 37.1433 122.009 37.4409C121.166 35.3246 120.848 35.4631 120.62 35.1472C119.761 34.0173 120.74 34.5571 119.735 33.2062C119.847 33.1783 119.947 33.1503 120.055 33.1248C119.894 32.8836 119.775 32.7309 119.585 32.4379C119.913 33.4365 119.501 32.7019 119.281 32.3321C118.934 31.7494 119.377 32.7042 119.262 32.5637C118.955 32.183 118.586 31.5148 118.747 31.9641C118.677 31.7617 118.596 31.5433 118.519 31.3361C118.057 30.6851 116.655 29.3937 117.69 30.8186C117.457 30.7731 117.219 30.2514 116.995 29.8677C116.771 29.4842 116.684 29.5527 116.481 29.2191C115.665 27.8982 116.397 28.6221 116.66 28.7427C115.388 27.1207 116.522 28.7823 114.702 26.449C114.435 26.2957 115.155 27.4574 114.415 26.5966C114.452 26.3056 114.072 25.5408 113.08 24.238C112.941 24.1468 112.802 24.0573 112.663 23.9674C112.229 23.1664 112.685 23.3685 111.404 22.2944C112.323 22.6635 111.719 22.3877 110.834 21.1787C110.653 20.9337 111.199 21.381 110.943 21.0411C110.826 20.8868 110.457 20.5966 110.168 20.2244C110.029 20.0419 109.395 19.1593 108.802 18.7037C109.044 19.2333 107.91 18.3921 108.65 19.3522C107.088 17.783 105.844 16.8365 107.88 18.2974C107.512 17.865 107.137 17.4368 106.756 17.0136C106.427 16.7901 106.094 16.5673 105.76 16.3485C105.826 16.179 105.913 16.1682 104.69 15.2063C105.24 15.5991 105.783 15.9999 106.323 16.4127C106.363 16.4009 106.459 16.435 106.465 16.3942C105.799 15.8891 103.963 14.4356 103.479 14.1349C103.001 13.8261 103.86 14.5041 103.703 14.4406C102.402 13.9069 102.653 13.7583 101.83 13.2342C101.347 12.9301 102.422 13.7639 102.166 13.5982C101.222 12.9788 100.906 12.5165 100.075 11.9498C100.308 12.2424 100.534 12.5366 100.753 12.8279C99.8975 12.2215 98.9239 11.5778 98.0788 11.0921C97.7475 10.9019 97.9481 11.1257 97.8922 11.0974C97.6155 10.9547 96.5162 10.347 96.3999 10.2828C95.5343 9.78083 95.5661 9.66627 94.7137 9.19087C95.0549 9.36536 95.3741 9.53258 95.7044 9.70903C95.9451 9.62955 96.1901 9.55317 96.433 9.47609C95.6051 8.98166 94.764 8.50525 93.9123 8.04801C94.5109 8.42923 95.1044 8.82068 95.6892 9.22131C94.652 8.81265 93.6125 8.43629 92.563 8.08639C92.0928 7.7495 91.621 7.42016 91.1409 7.09573C89.7156 6.47417 89.849 6.95746 89.3032 6.36051C88.8713 6.20783 88.4382 6.05995 88.0034 5.91647C88.0816 5.89669 88.1594 5.87641 88.2377 5.85691C87.7149 5.67801 87.1894 5.50567 86.6614 5.34074C87.1474 5.7003 87.612 6.06957 88.0789 6.43331C87.0673 6.06798 87.095 5.93496 86.9579 5.84302C86.5912 5.60146 85.7517 5.43084 85.461 5.23816C85.3635 5.17052 86.3901 5.43874 86.0843 5.21434C86.0277 5.16906 84.814 4.31782 83.9104 4.13103C83.905 4.20474 83.9448 4.31063 83.9561 4.3964C82.7795 4.06657 82.2853 3.54251 82.4698 3.48449C81.8212 3.37008 80.8936 3.12886 80.734 3.20721C80.4082 3.12494 80.0894 3.04691 79.7645 2.9703C80.1706 2.77929 78.7994 2.50337 78.6567 2.72214C79.2151 2.85424 79.7713 2.99431 80.3237 3.14104C79.8288 3.33253 81.4846 3.88143 78.028 2.80685C77.3845 2.50887 79.2247 3.09316 78.6991 2.85913C77.7559 2.5768 76.8447 2.44988 75.9475 2.1795C74.8268 1.85475 76.2564 1.93855 73.5539 1.70237C79.3712 3.09371 72.7161 1.74426 69.9181 1.71957C69.2739 1.29496 67.3504 0.983132 64.6373 1.03994C64.2858 1.04745 63.9222 1.061 63.548 1.08163C63.7497 1.14702 64.1881 1.14858 64.6373 1.15112C64.9511 1.15268 65.2688 1.15442 65.5121 1.17362C66.1028 1.22186 65.4631 1.27943 66.1964 1.34965C66.9291 1.41735 68.4774 1.56524 69.2127 1.70567C68.5762 1.70878 65.4921 1.75077 67.5358 1.64281C66.4031 1.50709 65.7129 1.4042 64.6373 1.35362C64.2742 1.33739 63.868 1.32869 63.3879 1.33244C62.8222 1.53152 62.8682 1.62455 61.0293 1.72354C62.1121 1.40924 59.9948 1.35315 60.4404 1.06575C61.7667 1.04752 61.0451 1.34509 61.8069 1.42972C61.8871 1.43549 63.1021 1.3301 63.3879 1.33244C62.1473 1.13091 61.7125 1.07234 62.4667 0.769941C61.5891 0.82353 61.0407 0.823303 60.9665 0.95722C60.7794 0.91131 60.5907 0.86604 60.406 0.821559C60.119 0.841787 59.8614 0.865661 59.5582 0.888397C59.9907 1.05194 59.1714 0.991755 58.6079 1.13523C58.0443 1.28141 58.8293 1.34962 57.2573 1.52435C57.7856 1.50952 58.2693 1.49943 58.7754 1.49656C57.7757 1.63884 56.7612 1.80732 55.7703 1.99751C56.4889 2.01187 58.0381 2.01771 58.0124 2.18214C57.5416 2.16576 55.9805 2.46889 55.812 2.50177C55.1519 2.61271 55.4985 2.46278 55.448 2.46736C54.397 2.57228 53.5424 2.76106 53.1213 2.68574C52.353 2.89792 51.7593 2.97804 50.9341 3.1642C50.4813 3.26775 50.5942 3.35594 50.3253 3.39648C48.5451 3.69351 50.1593 3.09405 46.8775 4.29317C47.3028 4.24852 47.7237 4.21131 48.1494 4.17603C47.7789 4.30709 47.4122 4.44144 47.0456 4.57905C46.791 4.63896 46.5389 4.69931 46.2853 4.76236C46.2417 4.6009 46.1991 4.43877 46.1556 4.27728C45.8776 4.35282 45.5958 4.43158 45.3171 4.51155C45.7866 4.34337 46.2565 4.18154 46.728 4.02515C46.7631 3.98414 46.7953 3.94369 46.8306 3.90273C46.1096 4.06641 45.3907 4.24277 44.6719 4.4328C44.6767 4.49247 44.6822 4.55248 44.6871 4.61214C43.0845 5.07106 43.0277 5.04117 41.6059 5.75897C40.4696 6.20242 39.6548 6.82005 39.0568 7.19897C38.8139 7.2717 38.5709 7.34573 38.3262 7.42264C38.2001 7.53404 38.0732 7.64664 37.9484 7.75882C37.6313 7.83356 37.3104 7.91287 36.9928 7.99374C36.9 8.2116 36.8383 8.28475 37.9828 7.80051C37.6765 8.14441 35.6802 9.04161 34.8725 9.41852C34.2561 9.69848 34.8385 9.20097 34.756 9.22396C34.4744 9.29867 33.5243 9.89426 33.3167 10.0042C32.4335 10.4614 31.8422 10.8291 31.0627 11.2781C30.9109 11.3649 30.4448 11.5449 30.4082 11.5653C30.1264 11.7253 29.4342 12.1268 29.3587 12.1774C25.4798 14.8139 29.7903 12.2418 26.2755 14.7914C26.4136 14.7575 26.5435 14.7306 26.6792 14.6994C26.4212 14.9004 26.1616 15.1053 25.9069 15.3102C25.5525 15.5297 25.8893 15.1478 25.2902 15.7178C25.2875 15.6291 25.2854 15.5402 25.2855 15.4498C25.0289 15.7047 24.7843 15.9526 24.5258 16.2168C23.9186 16.3879 22.2936 17.7437 22.2156 17.4345C22.1846 17.325 23.2539 16.252 22.5842 16.6999C22.0835 17.1146 22.4909 16.9113 22.297 17.0917C20.9075 18.4037 20.8881 18.2222 20.3514 18.7931C20.3119 18.9292 20.269 19.0707 20.229 19.2093C20.0044 19.4002 19.7801 19.5935 19.556 19.7897C19.5412 19.8717 19.5247 19.9559 19.5103 20.0378C19.7068 19.8432 19.9296 19.6254 20.1125 19.4495C19.972 19.8159 17.8046 22.2195 18.5402 21.2158C18.8381 20.8043 19.503 20.1612 18.9406 20.4296C18.3568 21.0777 17.7076 21.8248 17.124 22.5313C17.0702 22.5218 17.0171 22.5104 16.9632 22.5009C16.1714 23.4512 17.0515 22.7275 17.1253 22.7961C16.9414 23.0093 16.7565 23.2256 16.5754 23.4413C16.4635 23.5025 16.3537 23.5586 16.2392 23.6259C16.2873 23.6819 16.3098 23.9071 15.729 24.5147C15.357 24.9072 15.7515 24.1316 15.1228 24.9494C15.2599 24.96 15.5939 24.7536 14.9131 25.6734C14.7509 25.6905 14.5695 25.7488 14.4181 25.7435C13.6369 26.9461 13.1027 27.361 12.2554 28.8181C11.718 29.7437 11.188 31.1201 10.4455 31.4718C10.0302 32.1312 10.2564 31.9784 10.1596 32.1885C9.70778 33.1806 9.13204 33.7831 9.02206 33.9554C8.32903 35.0512 8.13148 35.6009 7.57081 36.5012C7.67131 36.4869 7.7566 36.4939 7.85008 36.4893C8.16921 35.571 8.39452 35.1364 9.06838 33.9633C8.86332 34.3694 8.66442 34.7759 8.46882 35.1849C8.56338 35.1509 8.65782 35.1174 8.75074 35.0863C10.5382 31.3057 10.405 32.3642 8.83147 35.4655C8.58096 35.6729 8.32647 35.8926 8.07905 36.1028C7.34994 37.9982 6.80067 38.785 5.89457 40.8867C5.78677 41.1363 5.49332 42.0851 5.34994 42.4861C5.35286 42.4797 5.35628 42.4734 5.3592 42.467C5.37824 42.7562 5.5544 42.4394 5.66891 42.4372C5.60065 42.6566 5.53313 42.8779 5.46773 43.097C5.21911 43.5505 5.21203 43.3577 4.90258 44.3186C5.02269 44.2156 5.14268 44.1145 5.26325 44.0128C4.90762 45.0536 4.60266 45.721 4.3467 46.7122C4.36636 46.5383 4.38647 46.3664 4.40759 46.1927C3.70108 48.3145 3.73797 46.4738 3.5109 48.1747C3.44297 48.2685 3.37592 48.3601 3.3084 48.4546C3.47702 47.7719 3.65727 47.0931 3.84707 46.4216C3.79505 46.3913 3.74304 46.3594 3.69024 46.3317C3.4917 47.0564 3.30545 47.79 3.13237 48.5241C3.23309 47.9816 3.34194 47.4377 3.45663 46.8988C3.18783 47.7287 2.93388 48.5723 2.70024 49.4108C3.13109 48.5645 2.86925 49.7341 3.13038 49.5663C2.60224 51.0175 2.10068 52.1612 1.86311 54.5534C1.82099 55.0293 1.99877 54.7924 1.63546 56.0979C1.90966 55.8076 1.81097 57.4874 2.06362 57.2997C2.10607 56.836 2.16029 56.3567 2.20855 55.9093C2.06271 56.4062 1.83617 56.4646 1.87965 55.6804C1.93294 54.6824 2.33493 53.2601 2.09075 53.2795C2.17257 52.8878 2.24827 52.524 2.33296 52.1459C2.35998 52.3138 2.38881 52.4783 2.41767 52.6429C2.53311 51.5481 2.71744 50.8679 2.98016 50.3869C2.7196 51.6767 2.50133 52.9608 2.32171 54.2616C2.36309 54.0725 2.40605 53.8814 2.44877 53.6931C2.43654 54.6951 2.73282 53.7143 2.48914 55.5361C2.4217 55.515 2.35374 55.4958 2.28597 55.4746C2.36671 56.1619 2.15625 57.9839 2.43686 57.4274C2.30965 57.9691 2.25731 58.0818 2.34156 58.4015C2.03894 59.8277 1.78646 60.7624 1.57259 60.2227C1.57492 60.7701 1.58428 61.3234 1.60105 61.8619C1.68163 61.5515 1.76457 61.2411 1.84987 60.9295C1.79137 61.8757 1.75409 62.8188 1.73804 63.7651C1.53157 63.8521 1.72097 61.9427 1.52826 62.4886C1.48839 62.5979 1.55128 63.1106 1.52892 63.2443C1.28611 64.6576 1.48458 62.4353 1.3112 62.8493C1.24259 64.335 1.10664 63.9409 1.09877 64.591C1.09784 64.8661 1.12079 65.33 1.21127 66.1951C1.15579 66.2734 1.09951 66.3577 1.04451 66.4307C1.07384 67.4454 1.20131 67.3525 1.27149 68.2234C1.31711 68.7679 1.13745 69.4699 1.34362 70.0572C1.38494 70.1599 1.56112 69.1361 1.75259 71.2431C1.92516 72.8845 1.65474 72.2248 1.69833 73.1198C1.73862 74.0145 2.34618 75.9906 2.16289 76.6351C2.11476 76.1677 2.03062 75.5763 1.97892 75.0568C1.88479 74.8577 1.79316 74.6627 1.70164 74.4645C1.96102 75.6343 2.10057 76.8575 2.40575 77.6125C2.5104 79.2213 3.16318 80.8879 3.28259 80.3608C3.12047 79.8665 3.15193 80.4411 3.04502 79.7235C3.08356 79.638 3.12127 79.5487 3.16016 79.4635C3.4407 80.6547 3.67757 81.4819 3.35869 80.9842C3.404 81.1703 3.45005 81.3546 3.497 81.5401C3.62913 81.5391 3.76066 81.5342 3.89273 81.5328C3.96741 81.7475 4.0435 81.9626 4.12038 82.176C4.16362 82.4257 4.20798 82.6759 4.25472 82.9278C3.96637 82.6582 3.77507 82.098 4.24876 83.9879C4.3169 83.9721 4.38578 83.9589 4.45391 83.9429C4.87903 85.5144 4.723 85.6094 5.45648 87.5251C4.66212 86.1402 4.80148 85.1828 4.34141 85.3472C4.24284 84.9628 4.14688 84.5742 4.05553 84.1878C3.97003 84.1522 3.88469 84.1165 3.80009 84.0832C4.46492 86.1193 6.1916 89.2118 6.51133 90.6228C6.61577 90.7641 6.71651 90.9074 6.82567 91.049C7.24187 92.3889 7.88089 92.7464 8.31662 94.1036C8.36627 94.2428 7.85872 94.1608 8.76397 95.7733C8.78594 95.7083 8.84921 95.6458 8.88706 95.582C9.05394 95.9457 9.22227 96.3068 9.39397 96.6653C9.47062 96.7037 9.54925 96.7453 9.62625 96.7831C9.29844 96.1881 8.98088 95.5889 8.67199 94.9831C8.9561 95.4715 9.24842 95.9588 9.54485 96.4383C9.24367 95.7634 9.08577 95.4728 9.40919 95.7978C9.72922 96.348 10.0581 96.8937 10.3939 97.433C10.4547 97.4725 10.5162 97.5114 10.5772 97.5508C10.4969 97.2391 10.4159 96.927 10.3423 96.615C11.1149 98.0722 11.894 99.2755 12.4606 100.425C12.559 100.62 12.0175 100.064 12.9556 101.209C12.9159 101.265 12.8961 101.328 12.8623 101.384C14.068 102.746 14.3799 103.248 15.4656 104.798C14.7911 103.772 15.4145 104.67 15.6635 104.868C15.8327 105.004 15.3027 104.367 15.3981 104.408C15.4932 104.453 16.3228 105.162 15.7575 104.438C14.0436 102.92 14.0235 102.156 12.2316 99.8789C12.5228 100.221 12.8194 100.562 13.117 100.897C13.024 100.706 12.9415 100.534 12.8424 100.328C13.7042 101.691 13.2968 101.02 13.7305 101.523C14.166 102.024 14.931 102.952 15.4458 103.57C15.6079 103.765 15.3719 103.611 15.7244 104.063C15.9634 104.371 16.7446 105.106 16.7905 105.391C16.8224 105.578 15.4901 104.448 17.0453 106.254C17.2671 106.656 16.5376 105.775 16.5145 105.762C16.2896 105.68 17.1856 106.851 17.7123 107.291C17.7546 107.326 17.4615 106.869 17.8791 107.276C18.8746 108.237 19.3576 108.874 19.8935 109.607C20.0796 109.56 21.0347 110.241 22.0594 111.257C22.1456 111.272 22.2299 111.284 22.3162 111.299C22.1339 111.167 21.9521 111.034 21.7709 110.9C21.6119 110.713 21.438 110.52 21.2892 110.331C22.3721 111.295 22.6822 111.255 23.2526 111.652C25.2235 112.981 23.7543 112.504 23.3591 112.3C23.1528 112.066 22.9592 111.834 22.7603 111.598C22.7476 111.663 22.7347 111.729 22.7199 111.793C25.4179 114.123 22.88 112.437 24.2029 113.691C24.7448 113.772 25.7857 114.593 27.0498 115.745C27.2023 115.855 27.3554 115.966 27.5091 116.075C27.5584 116.06 27.5948 116.009 27.652 116.017C29.343 117.165 29.4231 117.705 29.5605 117.852C30.1843 118.481 30.8947 118.626 31.1117 118.758C32.0317 119.314 32.2426 119.569 33.1552 120.037C34.1397 120.532 33.5256 120.088 33.8547 120.184C34.1183 120.263 34.8832 120.664 35.2292 120.773C35.0797 120.753 34.9165 120.723 34.7673 120.703C35.7368 121.298 36.5423 121.781 37.7055 122.346C39.1818 122.619 40.079 123.676 39.8172 123.005C38.7059 122.492 38.1124 122.149 37.5804 121.752C38.3085 122.079 39.0438 122.392 39.7854 122.692C39.9778 122.836 40.1089 122.951 40.3413 123.111C40.937 123.232 42.2068 123.785 42.7323 123.937C45.1838 124.635 44.4978 124.185 46.6115 125.201C45.0044 124.747 44.9472 124.904 43.3848 124.336C43.6819 124.57 44.4933 124.82 43.9274 124.778C45.4709 125.262 45.0172 124.969 45.6493 125.052C46.1933 125.123 47.2355 125.421 47.2124 125.28C47.2996 125.378 47.3635 125.467 47.4513 125.565C48.4569 125.847 49.4659 126.103 50.4822 126.335C50.0325 126.307 49.5826 126.275 49.1335 126.238C49.4527 126.346 49.7743 126.452 50.0964 126.556C52.6429 126.966 56.9751 127.976 56.3507 127.304C57.5767 127.442 57.7272 127.524 58.3843 127.7C58.4619 127.664 58.5367 127.635 58.6146 127.593C59.4019 127.713 60.0248 127.596 60.7243 127.681C61.4254 127.765 61.5921 127.924 61.7057 127.671C62.1542 127.766 62.6032 127.844 63.0543 127.924C63.3291 127.872 63.6036 127.818 63.8749 127.763C64.1283 127.784 64.3825 127.804 64.6373 127.822C64.8119 127.835 64.9864 127.846 65.1607 127.858C65.3897 127.737 67.0681 127.754 67.7965 127.629C68.5031 127.722 68.5164 128.157 70.1656 127.948C70.114 127.847 70.0633 127.747 70.0121 127.647C70.3906 127.637 70.7689 127.624 71.1497 127.607C71.1758 127.638 71.1989 127.67 71.2251 127.701C71.03 127.711 70.8405 127.719 70.6467 127.726C70.8192 127.768 70.9885 127.809 71.1589 127.85C71.7304 127.706 72.298 127.554 72.863 127.395C72.0802 127.432 71.2852 127.454 70.5084 127.461C71.4704 127.295 72.1658 127.291 72.9967 127.096C73.748 127.139 73.4908 127.258 73.2124 127.453C73.4844 127.403 73.7591 127.351 74.0297 127.298C73.8714 127.476 74.3517 127.512 72.7432 127.713C72.8594 127.743 72.9775 127.771 73.0913 127.803C73.3544 127.761 73.5309 127.774 73.8172 127.715C74.5959 127.556 75.159 127.182 75.0878 127.096C75.0499 127.053 74.2924 127.27 74.3122 127.194C74.3664 127.01 76.1385 126.818 73.5697 127.032C74.3942 126.801 74.5988 126.854 75.5332 126.727C75.4507 126.682 75.3704 126.637 75.291 126.592C75.7252 126.545 76.159 126.493 76.5913 126.437C76.0478 126.85 79.2441 126.327 76.4345 127.147C77.2835 127.002 78.1335 126.839 78.977 126.659C78.8108 126.729 78.6439 126.797 78.4767 126.866C78.0923 126.934 77.7068 126.999 77.3226 127.061C77.7823 127.025 78.2463 126.982 78.707 126.936C79.7521 126.628 80.1356 126.417 80.5818 126.168C79.3414 126.383 79.7715 126.41 78.8215 126.658C78.8365 126.57 78.7754 126.505 78.8394 126.401C79.3729 126.462 80.9416 125.937 81.3084 125.823C82.4238 125.488 81.5897 125.896 82.3407 125.686C83.092 125.474 83.9387 125.104 84.598 125.062C84.5577 124.976 84.4787 124.9 84.4088 124.833C85.5485 124.421 85.3538 124.598 85.4775 124.572C87.4461 124.126 88.4005 123.546 90.4884 122.601C90.2104 122.693 89.9297 122.787 89.6486 122.878C91.1511 121.999 90.1136 122.541 88.7082 123.052C90.0103 122.534 90.6746 122.043 91.5432 121.579C92.4145 121.118 93.9588 120.424 94.5331 120.186C93.339 120.954 91.9325 121.574 90.5115 122.245C90.7141 122.259 90.9067 122.261 91.119 122.279C91.9065 121.695 92.4604 121.568 92.7576 121.452C93.6255 121.106 93.5186 120.963 94.1029 120.868C94.0531 120.822 94.0131 120.783 93.9653 120.74C95.6764 119.88 97.5184 118.914 98.4447 118.044C98.6228 118.112 98.7749 118.19 98.9702 118.251C99.5945 117.713 100.238 117.424 100.79 117.01C101.337 116.597 101.053 116.646 101.678 116.14C101.793 116.047 102.09 115.928 102.35 115.665C102.617 115.4 103.431 114.239 103.786 114.429C104.327 114.006 104.839 113.606 105.36 113.178C104.87 113.616 104.374 114.046 103.874 114.467C104.369 114.192 104.859 113.911 105.349 113.622C105.352 113.514 105.355 113.405 105.356 113.3C106.446 112.255 107.349 111.627 108.433 110.555C108.613 110.375 108.073 110.677 108.909 109.923C109.738 109.163 110.551 108.781 111.766 107.279C111.828 107.202 112.039 106.631 112.608 106.215C112.739 106.12 112.345 106.653 112.617 106.412C112.894 106.176 113.959 104.965 114.122 104.935C114.08 104.923 113.985 104.975 113.923 104.987C114.082 104.763 114.242 104.535 114.401 104.307C114.472 104.33 114.544 104.352 114.614 104.375C115.469 103.026 115.759 102.231 117.158 100.358C116.704 100.844 116.242 101.322 115.777 101.788C115.729 101.975 115.68 102.162 115.632 102.347C114.968 103.194 114.282 104.027 113.577 104.837C113.528 105.025 113.478 105.211 113.426 105.399C113.235 105.611 113.044 105.821 112.849 106.031C112.852 105.938 112.854 105.846 112.858 105.751C112.502 106.19 112.14 106.625 111.775 107.052C112.288 105.981 113.877 104.649 113.559 104.575C113.754 104.408 113.948 104.239 114.142 104.07C114.101 103.895 114.455 103.521 115.023 102.812C114.842 102.935 114.649 103.076 114.477 103.183C115.097 102.55 116.014 101.286 116.561 100.556C116.803 100.236 116.658 100.622 116.736 100.531C117.139 100.063 117.635 98.9901 117.777 98.7916C118.634 97.6085 119.42 96.9619 120.012 95.4563C119.151 96.8654 119.612 96.0952 119.213 96.5409C119.087 96.6813 117.933 98.4624 119.319 96.1942C119.518 95.9522 121.954 91.7668 121.381 93.2586C121.685 92.531 121.894 91.948 122.142 91.2726C123.3 89.867 122.641 90.2386 122.213 90.6042C122.331 90.3424 122.439 90.0918 122.557 89.8207C122.548 90.5043 123.821 87.5548 124.054 86.4768C124.14 86.1202 123.712 87.0477 123.966 86.2446C124.12 85.8756 124.294 85.4554 124.449 85.0613C124.098 85.5886 124.428 84.4307 124.265 84.3949C124.644 83.715 125.113 83.24 125.147 83.6968C125.275 83.066 125.392 82.4344 125.5 81.8021C125.382 82.0763 125.262 82.3533 125.14 82.6247C125.848 80.66 126.201 78.0015 126.621 77.6423C126.675 77.3698 126.728 77.0974 126.779 76.8263C126.738 76.7316 126.696 76.6395 126.655 76.5451C126.939 75.3333 127.188 74.1046 127.4 72.8769C127.287 73.9825 127.33 74.257 127.07 75.4009C127.212 74.9688 127.353 74.5229 127.484 74.0959C127.55 72.3322 127.487 72.0707 127.761 69.4503C127.78 69.3332 128.047 67.3396 128.057 67.2731C128.137 66.963 128.216 67.4421 128.256 67.3042C128.379 66.9261 128.657 64.5498 128.683 64.5917C129.241 65.1784 128.743 73.2419 128.256 75.3817C124.813 97.9015 108.443 117.095 87.3787 124.959C87.1627 125.041 87.2797 125.067 87.1882 125.104C86.618 125.334 86.0198 125.437 85.8044 125.507C85.345 125.656 85.627 125.659 85.2922 125.773C81.8291 126.936 78.4527 127.71 74.8516 128.304C74.6159 128.342 74.8445 128.23 74.4327 128.307C74.2219 128.347 73.5725 128.559 73.0893 128.623C71.3968 128.847 69.979 128.944 68.1803 129.047C67.2042 129.103 65.7411 129.136 64.6373 129.135C64.6351 129.135 64.6329 129.135 64.6306 129.135C64.1436 129.135 63.6363 129.183 63.1569 129.174C62.4772 129.159 62.6198 129.054 62.5157 129.045C62.0598 129 61.992 129.115 61.5587 129.092C60.751 129.046 60.7076 128.967 59.6833 128.9C58.9522 128.854 57.2743 128.751 56.3513 128.646C54.2193 128.289 51.5263 127.826 49.5537 127.376C48.3892 127.111 48.3102 126.969 47.8384 126.845C46.1809 126.398 44.8948 126.144 43.3649 125.619C41.3385 124.917 39.6104 124.117 37.7267 123.246C37.4219 123.105 37.4496 123.228 37.1496 123.09C36.038 122.581 34.6324 121.883 33.6853 121.346C32.6272 120.745 32.3128 120.394 31.2818 119.81C30.9803 119.637 30.8253 119.693 30.3209 119.398C29.5147 118.924 28.7256 118.264 28.1966 117.885C27.4729 117.364 28.0329 117.917 27.0604 117.207C27.0206 117.178 26.9282 116.997 26.7169 116.849C26.1034 116.415 26.117 116.522 25.2452 115.847C25.159 115.785 24.0687 114.81 23.9594 114.715C23.2937 114.18 22.0119 113.035 21.6267 112.708C20.2456 111.545 21.194 112.608 20.282 111.337C19.741 110.927 19.2086 110.512 18.652 110.052C19.0333 110.347 17.7479 108.889 17.6554 108.789C16.8502 107.998 17.2139 108.576 16.271 107.497C17.7335 108.724 15.0657 106.098 14.5524 105.436C11.991 102.339 9.99084 99.2614 8.03471 95.7342C7.37948 94.5551 6.50516 92.962 5.91111 91.6631C5.7719 91.3602 5.93562 91.5618 5.81516 91.2945C5.69534 91.0277 5.76303 91.3533 5.6292 91.047C4.80231 89.1334 4.33773 87.573 3.54729 85.8349C3.5404 85.7394 3.56004 85.7356 3.53604 85.5821C2.86486 84.1599 2.23384 81.2111 2.0087 80.1107C1.63866 78.3938 1.45035 77.9635 1.22649 76.7092C0.924396 75.0407 0.798048 72.4972 0.618333 73.6658C0.446986 72.5204 0.316627 71.3943 0.247084 70.2299C0.239532 70.0999 0.331836 70.1821 0.329142 70.13C0.313626 69.7999 0.22909 69.6984 0.208701 69.4755C0.155451 68.8711 0.317418 69.8519 0.231201 68.9911C0.189286 68.5379 0.0980935 68.2754 0.0465696 67.0164C0.0163453 66.2183 0.000380387 65.4094 0.000246208 64.591C-0.0199411 57.6297 1.20172 50.263 3.50428 43.6343C3.6805 43.127 3.48585 43.4334 3.71604 42.7998C4.49409 40.5793 6.31361 36.8014 7.25184 35.0129C8.1733 33.2199 7.86151 33.5657 8.43838 32.4373C8.55164 32.2206 8.51157 32.4283 8.62302 32.2374C9.36951 30.9528 10.4103 29.5113 11.0973 28.5282C11.5529 27.8765 11.429 27.8682 11.7393 27.4112C12.2037 26.7307 12.7957 26.1155 13.0628 25.768C14.3203 24.1358 15.1574 22.9863 16.4702 21.5758C16.4023 21.6161 16.3528 21.6389 16.2928 21.6711C17.8116 19.9675 19.418 18.3457 21.1072 16.8111C21.0131 16.8674 20.9214 16.9219 20.8272 16.9785C22.8218 15.1887 22.7698 15.5972 22.2606 15.3671C22.3973 15.2262 22.5418 15.076 22.6742 14.9429C22.7854 15.1878 24.1322 14.2708 25.813 13.0853C25.9347 12.9967 26.6011 12.1941 26.6872 12.4984C26.8577 12.2847 26.9563 12.1521 27.1014 11.9703C27.508 11.7896 27.9203 11.6094 28.329 11.4376C28.5151 11.2941 28.7054 11.15 28.8928 11.0087C28.8896 10.9413 28.8337 10.906 28.865 10.8168C29.763 10.1952 31.7089 9.08147 32.4557 8.65352C34.2999 7.56501 36.1874 6.44081 37.7737 5.90257C38.5058 5.55213 37.7217 5.77611 38.8345 5.30037C38.9828 5.29843 39.1225 5.29797 39.2765 5.2964C40.085 4.67564 40.3355 4.73609 41.6159 4.29846C42.4852 4.00687 43.0243 3.74669 43.8526 3.47655C44.0625 3.4087 44.0573 3.49026 44.1994 3.44015C44.6744 3.26839 46.0218 2.73944 46.364 2.64008C49.4678 1.70478 52.1897 1.13205 55.2462 0.707736C55.5733 0.663323 55.1391 0.651171 55.4778 0.605824C56.0238 0.534556 55.7188 0.691904 56.035 0.654795C56.9189 0.556279 56.9119 0.431265 58.1513 0.296119C60.1897 0.0817112 62.3979 -0.0190174 64.6373 0.00295831ZM62.1517 128.075C63.4094 128.054 63.46 128.275 64.6373 128.171C64.6689 128.168 64.7013 128.165 64.7345 128.162C64.7021 128.16 64.6697 128.157 64.6373 128.155C63.9884 128.114 63.3432 128.062 62.7043 128.002C62.5217 128.027 62.3344 128.052 62.1517 128.075ZM78.7083 126.099C78.1295 126.237 77.542 126.368 76.9619 126.488C78.0712 126.103 77.0233 126.194 79.0723 125.896C78.9516 125.964 78.8298 126.031 78.7083 126.099ZM47.1158 125.178C47.1745 125.221 47.2056 125.253 47.2137 125.275C47.2132 125.276 47.2129 125.278 47.2124 125.28C47.1833 125.247 47.1519 125.214 47.1158 125.178ZM82.7272 124.796C82.9671 124.849 87.803 123.237 85.3809 124.164C85.031 124.308 82.7949 124.867 82.2501 125.198C82.3239 125.086 82.562 124.932 82.7272 124.796ZM42.7177 124.62C44.8554 124.806 40.3595 123.504 41.1222 123.985C41.1564 124.012 42.5536 124.499 42.7177 124.62ZM85.5443 124.265C87.2301 123.273 89.4808 122.721 87.5468 123.601C87.0592 123.818 86.1123 124.062 85.5443 124.265ZM35.5184 121.642C35.8927 121.399 33.9961 120.599 34.0043 120.734C34.2523 120.875 34.4778 120.921 34.7302 121.088C34.9856 121.256 35.011 121.376 35.5184 121.642ZM96.8757 119.345C96.9172 119.353 96.9648 119.36 97.0107 119.366C97.0446 119.373 97.0786 119.38 97.1126 119.386C96.9286 119.403 95.6836 119.966 95.2213 120.316C94.989 120.492 95.6434 120.319 94.5774 120.924C95.357 120.5 96.0678 120.077 96.8049 119.63C96.7617 119.71 96.7214 119.788 96.6778 119.867L96.6792 119.867C96.9327 119.732 97.1885 119.594 97.4402 119.455C97.4969 119.27 97.5508 119.087 97.6056 118.902C97.3625 119.051 97.1207 119.198 96.8757 119.345ZM35.3979 120.791C35.3821 120.811 35.3188 120.801 35.2292 120.773C35.2878 120.781 35.3457 120.787 35.3979 120.791ZM28.1801 116.294C27.9941 116.152 26.584 115.112 28.5321 116.494C28.5477 116.348 28.7274 116.314 28.7942 116.208C29.576 116.706 30.0276 117.311 30.8616 117.836C32.1034 118.611 32.8763 118.755 32.9494 119.187C31.8419 118.65 30.0562 117.508 29.9424 117.183C28.9574 116.524 28.5827 116.459 29.3309 117.069C32.8386 119.218 30.1258 117.933 33.2955 119.664C33.3558 119.645 33.5093 119.674 33.5113 119.625C34.3907 120.309 32.8708 119.528 32.696 119.48C32.202 119.357 33.4291 120.137 31.9389 119.19H31.9382C30.959 118.554 30.7458 118.407 29.8457 117.809C30.2737 117.869 32.1418 118.994 29.6386 117.326C29.6061 117.304 29.609 117.439 29.2191 117.159C29.0984 117.071 28.7542 116.731 28.1801 116.294ZM27.0061 116.018C25.7432 114.99 25.5258 114.881 25.8765 115.401C25.9029 115.439 26.4448 115.801 26.4794 115.861C26.5135 115.921 25.9708 115.749 26.8347 116.281C27.6373 116.536 26.5002 115.872 26.302 115.59C26.5355 115.734 26.7737 115.879 27.0061 116.018ZM25.7686 114.352C26.3885 114.712 27.0124 115.059 27.6388 115.394C27.5447 115.522 27.1422 115.417 26.1961 114.808C26.0537 114.658 25.9095 114.504 25.7686 114.352ZM21.3481 110.989C21.9591 111.615 22.586 112.231 23.2235 112.832C23.687 112.709 22.9035 112.165 21.3481 110.989ZM11.0093 99.4136C10.3887 98.6628 8.76751 95.76 9.3536 97.21C9.5656 97.7272 10.4207 98.407 11.0292 99.855C11.3042 100.116 11.5011 100.262 11.7485 100.476C11.7763 100.68 11.8188 100.905 11.8445 101.102C11.845 101.103 11.8453 101.104 11.8458 101.104C12.678 102.238 12.2487 101.425 12.3461 101.396C12.3875 101.389 12.9367 102.268 12.8186 101.954C12.6048 101.419 11.3577 99.7403 11.5129 99.63C11.8625 100.276 12.7271 101.422 12.5843 101.004C12.4268 100.55 11.4839 99.5637 11.1179 98.7783C11.5358 99.9732 10.2389 97.7796 10.2933 97.4105C9.38561 96.2203 10.0061 97.4406 10.8353 98.7307C10.1898 98.0324 11.0028 99.1468 11.0093 99.4136ZM117.894 97.8519C117.882 98.1712 116.787 99.9003 116.157 100.701C116.208 100.589 116.258 100.476 116.308 100.364C116.857 99.5387 117.386 98.7008 117.894 97.8519ZM10.6229 96.58C11.6975 97.9893 12.0227 98.4414 13.119 100.277C12.9023 100.06 12.6864 99.8414 12.4725 99.6214C12.3217 99.2975 12.1747 98.9751 12.0298 98.6493C12.0292 98.6485 12.029 98.6475 12.0284 98.6466C11.941 98.6194 11.853 98.5919 11.767 98.5666C11.3741 97.9124 10.9906 97.2464 10.6229 96.58ZM6.70787 90.2978C6.78948 90.3364 6.84253 90.3247 6.96927 90.4421C7.14574 91.2287 8.23584 92.8264 8.28883 92.9661C8.57775 93.8359 7.04202 91.2233 6.70787 90.2978ZM5.25464 86.7045C5.11825 85.9511 5.95057 88.09 5.77346 87.0923C6.41261 89.2046 7.07703 89.636 6.52059 89.7095C5.98803 88.5222 6.33376 89.0462 6.37765 88.8797C6.29294 88.9387 5.29688 86.9908 5.2553 86.7045H5.25464ZM124.021 83.8424C123.886 84.815 123.318 86.4838 122.805 87.2776C123.245 86.1415 123.649 85.0015 124.021 83.8424ZM3.97281 81.4051C4.13988 81.6009 4.6164 81.8988 4.91317 83.2613C4.94207 83.3916 4.4716 82.7872 4.6617 83.5393C4.40645 82.8246 4.18921 82.1219 3.97215 81.4057L3.97281 81.4051ZM1.93723 69.1287C2.12794 71.7453 2.27085 70.7203 2.61752 72.2681C2.52457 72.6107 2.04692 71.0855 2.10928 72.151C2.46732 73.9539 2.87473 75.6748 3.37987 77.6337C3.38985 77.5711 3.40014 77.5089 3.41031 77.4464C3.3302 77.1331 3.25424 76.8269 3.17935 76.5147C3.3048 76.8428 3.43019 77.1599 3.56318 77.4927C3.33558 77.0858 3.64656 78.1787 3.4606 78.0645C3.37661 78.0139 3.17452 77.5426 3.04899 77.2638C3.16704 78.0245 3.30582 78.8004 3.45465 79.5614C3.30474 79.1848 3.15839 78.8059 3.0159 78.4271C2.9423 78.1059 2.87218 77.786 2.80347 77.463C2.80328 77.461 2.80301 77.4589 2.80281 77.457C2.9027 77.701 3.00325 77.9406 3.1059 78.1823C3.05381 77.8426 2.99975 77.5042 2.95634 77.1612C2.57504 76.3186 2.73785 76.1997 2.52553 75.035C1.94605 71.4628 1.7443 72.4226 1.93723 69.1287ZM1.73406 76.3433C1.89302 75.5531 1.4657 74.0923 1.40186 74.3679C1.48378 74.8638 1.58273 75.1865 1.66259 75.7391L1.66061 75.8701C1.65432 76.0678 1.64653 76.4055 1.73406 76.3433ZM2.09075 73.5566C2.18499 74.1054 2.28774 74.6589 2.39715 75.2083C2.14791 74.6335 2.29425 75.8485 2.02061 73.9106C2.04357 73.7926 2.06714 73.6744 2.09075 73.5566ZM127.435 71.3311C127.406 71.8667 127.429 72.1695 127.315 72.8829L127.256 73.1436C127.16 73.5263 126.983 74.1544 126.963 74.0403C127.208 72.6227 127.263 72.8855 127.272 71.5316C127.327 71.4634 127.38 71.4052 127.435 71.3311ZM128.085 68.2691C127.946 68.3347 127.826 70.5482 127.647 71.3106C127.659 71.438 127.79 71.4124 127.841 71.0776C127.962 70.2927 128.028 69.1454 128.085 68.2691ZM1.92531 68.3518C1.93591 68.5032 1.94235 68.6497 1.94186 68.7853C1.93631 68.633 1.93084 68.4882 1.92531 68.3518ZM1.67914 66.2362C1.71 64.7644 1.8897 66.1468 1.99149 66.4717C1.85929 66.882 1.88904 67.4388 1.92531 68.3518C1.86348 67.4966 1.67454 66.4821 1.67914 66.2362ZM1.28539 64.591C1.37014 64.0296 1.5193 64.1786 1.63414 64.591C1.66059 64.6855 1.68534 64.7938 1.70759 64.9106C1.65109 65.0417 1.59489 65.173 1.53951 65.3017C1.56944 65.6631 1.60248 66.0234 1.63811 66.3824C1.50209 66.1708 1.36702 65.9572 1.23311 65.7425C1.22706 65.2055 1.24965 64.8325 1.28539 64.591ZM0.942596 64.591C0.904898 64.6643 0.867615 64.7381 0.830097 64.8107C0.904859 65.2517 0.984699 65.6911 1.06833 66.127C1.05218 65.6177 1.0419 65.1057 1.03789 64.591C1.03742 64.5306 1.03688 64.4701 1.03657 64.4097C1.0051 64.4695 0.973837 64.5303 0.942596 64.591ZM127.15 61.1862C127.236 61.9033 127.309 62.6194 127.371 63.3396C127.311 63.6686 127.247 63.9942 127.182 64.3223C127.197 63.2727 127.186 62.2283 127.15 61.1862ZM0.980979 60.768C0.946374 62.916 0.813281 62.4103 0.618994 63.4753C0.830993 63.2713 1.04405 63.0732 1.25826 62.8737C1.19206 62.6723 1.1268 62.4703 1.06238 62.2709C1.08741 61.7885 1.11807 61.3098 1.15436 60.8209C1.09681 60.8032 1.03851 60.7858 0.980979 60.768ZM2.32105 59.9931C2.23023 60.4487 2.13601 60.9211 2.06031 61.3709C1.95373 61.1217 2.08607 60.8571 2.08943 60.8289V60.8302C2.12529 58.6772 2.12456 61.1098 2.3012 59.0944C2.30484 59.3963 2.31261 59.6937 2.32105 59.9931ZM124.674 46.0133C124.867 46.3459 125.057 46.6808 125.245 47.0219C125.753 48.8009 126.18 50.5959 126.527 52.4113C126.527 52.4122 126.528 52.4136 126.528 52.4146C126.444 52.4731 126.293 51.8345 126.348 52.578C126.241 52.0259 126.127 51.4701 126.004 50.915C126.048 51.0758 126.093 51.2406 126.136 51.4021C126.137 51.2512 126.138 51.0997 126.138 50.9488C125.988 50.7757 126.011 50.5797 125.909 49.9932C125.835 50.1794 125.759 50.3641 125.684 50.5491C125.563 49.8707 125.432 49.1975 125.289 48.5208C125.315 48.5051 125.341 48.4888 125.367 48.4731C125.265 48.2309 125.161 47.9925 125.056 47.7525C125.07 47.6752 125.085 47.6002 125.099 47.5228C124.989 47.2283 124.876 46.9345 124.762 46.6427C124.814 46.5277 125.05 47.1768 124.674 46.0133ZM3.65119 48.3911C3.53376 49.1349 3.43186 49.8226 3.34016 50.5484C3.23633 50.7482 3.13304 50.9515 3.03112 51.1533C3.03059 51.3275 3.02953 51.5052 3.03046 51.6794C2.97032 51.5624 2.91016 51.456 2.85046 51.3326C3.28577 50.1671 3.15635 49.8503 3.44605 48.7643C3.51332 48.5184 3.41608 49.3671 3.65119 48.3911ZM125.386 44.8043C125.715 45.5782 126.135 47.2088 126.193 46.7505C126.193 46.7514 126.194 46.7523 126.194 46.7532C126.199 46.7148 125.826 45.2532 125.703 45.0836C125.587 44.9507 125.491 44.897 125.386 44.8043ZM5.25597 41.2361C4.21728 44.0897 3.57117 46.91 4.55384 45.1623C4.61069 44.9419 4.67063 44.7189 4.72986 44.4992C4.5451 44.401 4.91234 43.6395 5.34729 42.4914C5.33068 42.2976 5.55683 41.6532 5.5392 41.5087C5.50347 41.2286 5.12833 41.9273 5.25597 41.2361ZM125.087 44.3682C124.552 42.911 124.281 42.4314 124.414 43.3067C124.634 43.8056 124.85 44.3113 125.058 44.8182C125.068 44.6675 125.077 44.5165 125.087 44.3682ZM122.063 40.0078C122.063 40.0087 122.063 40.0097 122.064 40.0105C122.172 40.1998 122.28 40.3897 122.385 40.577C122.382 40.7182 122.378 40.8582 122.374 40.9992C122.712 41.684 123.04 42.3813 123.354 43.0824C123.16 43.053 122.705 41.7584 122.304 41.1097C121.93 40.0563 121.796 39.5197 121.904 39.3931C121.957 39.5969 122.01 39.801 122.063 40.0078ZM6.76809 39.5552C6.65227 40.1499 6.54486 40.7425 6.43854 41.3466C6.06216 42.4796 5.43724 43.5291 5.6603 42.6483C5.93608 41.5869 6.4749 40.5838 6.76809 39.5552ZM121.403 37.9881C121.601 38.414 121.796 38.8456 121.986 39.2766C122.004 39.3883 122.022 39.4971 122.04 39.6088C121.799 39.1853 121.552 38.7626 121.302 38.3468C121.336 38.2289 121.37 38.1089 121.403 37.9881ZM121.012 34.4702C120.803 34.5374 121.331 35.2401 121.857 36.4409C121.942 36.6284 122.257 37.905 122.621 38.2284C122.698 38.2914 122.144 37.0321 122.656 37.8492C122.489 37.4648 122.332 37.1395 122.164 36.7804C122.198 36.7322 122.231 36.6838 122.264 36.6329C122.462 37.0833 122.652 37.5308 122.84 37.9848C122.734 37.372 122.108 35.9458 121.608 35.3517C121.772 35.714 121.933 36.0781 122.091 36.4436C121.742 35.7775 121.384 35.1271 121.012 34.4702ZM116.114 29.4196C115.407 28.377 113.969 26.3976 114.984 27.4277C116.196 29.1149 117.314 30.5061 118.324 32.2864C118.236 31.7084 118.873 32.5801 119.684 33.8217C119.226 33.4917 118.364 32.1389 119.039 33.7515C119.179 33.8305 119.321 33.9133 119.46 33.9937C119.7 34.5531 119.931 35.1168 120.153 35.6799C120.281 35.8572 120.409 36.0354 120.535 36.2146C120.532 36.5259 120.525 36.8345 120.517 37.1444C120.428 36.9164 120.337 36.6858 120.246 36.4588C119.704 35.6527 119.278 34.9129 118.613 33.7886C118.64 33.9048 118.667 34.0211 118.694 34.1373C118.419 33.5329 118.135 32.9329 117.842 32.3393C118.188 32.7991 118.568 33.3203 118.877 33.7575C118.654 32.9018 117.763 31.6731 117.299 31.041C116.667 30.1793 116.888 30.3232 116.41 29.6903C116.334 29.5895 116.256 29.6249 116.114 29.4196ZM7.94338 35.2028C7.28255 36.4604 7.29345 36.6631 7.29949 36.9935C7.57037 36.3922 7.85083 35.7953 8.13993 35.2034C8.07396 35.2045 8.00969 35.2018 7.94338 35.2028ZM117.491 32.3175C117.797 32.7701 118.097 33.2265 118.393 33.69C118.702 34.5242 117.311 31.9451 118.096 33.7376C117.88 33.3949 117.658 33.053 117.436 32.7152C117.455 32.5838 117.473 32.4496 117.491 32.3175ZM119.685 33.8223C119.686 33.8231 119.686 33.8242 119.687 33.825C119.686 33.8238 119.685 33.8228 119.684 33.8217L119.685 33.8223ZM10.9524 29.9901C10.3967 30.8616 9.47799 32.1978 9.25566 32.8866C9.12337 33.2844 9.98853 31.9211 9.54617 32.9501C10.0366 32.0765 10.1161 31.8567 9.92669 31.9429C10.0321 31.7394 10.14 31.5343 10.2483 31.3315C10.3231 31.253 10.3995 31.1719 10.4746 31.0939C10.4972 30.9663 10.5209 30.838 10.5428 30.7127C10.6804 30.5112 10.8209 30.3081 10.961 30.1085C10.9562 30.0714 10.9652 30.0191 10.9524 29.9901ZM13.7404 27.0671C13.7429 27.0752 13.3641 27.7605 13.3288 27.8135C11.949 29.7597 13.3243 26.9244 13.7404 27.0671ZM114.27 26.6429C114.083 26.6629 114.337 26.9875 114.663 27.613C114.276 27.0817 113.88 26.5549 113.478 26.038C113.744 26.2378 114.006 26.438 114.27 26.6429ZM114.121 24.1255C110.586 19.8557 112.326 22.2082 114.451 24.739C114.463 24.8282 114.473 24.9155 114.486 25.0044C115.47 26.1089 116.33 27.1722 116.469 26.991C116.029 26.347 116.126 26.6898 115.921 26.4523C115.142 25.5573 114.713 24.8675 113.928 23.9991C113.996 24.0438 114.058 24.085 114.123 24.1282C114.123 24.1274 114.122 24.1263 114.121 24.1255ZM114.106 25.0077C114.537 25.5603 114.961 26.1231 115.373 26.6899C115.434 26.6762 115.495 26.6618 115.557 26.6482C115.082 26.0932 114.598 25.5444 114.106 25.0077ZM107.688 18.9188C108.543 19.8634 108.845 20.0403 109.629 20.7016C109.541 20.7593 109.455 20.8171 109.367 20.875C109.368 20.8757 109.368 20.8768 109.368 20.8776C109.546 21.0732 109.706 21.2663 109.892 21.4659C109.143 20.8267 109.158 20.5939 108.49 20.0014C107.817 19.4123 107.352 19.1074 106.958 18.4172C107.19 18.5809 107.448 18.7499 107.688 18.9188ZM21.8761 17.6283C22.1592 17.6115 20.9192 18.8964 22.2315 17.7322C22.0649 18.0438 21.7099 18.446 20.9788 19.1617C20.8291 19.2428 20.68 19.3246 20.5308 19.4072C20.5993 19.5098 20.4404 19.725 20.096 20.192L20.0947 20.1927C19.0101 21.3036 19.0553 21.2181 18.6514 21.3521C19.869 20.2346 19.7794 20.0806 20.5076 19.2119C21.0099 18.6171 21.775 17.9542 21.8761 17.6283ZM109.603 19.8499C109.924 20.162 110.24 20.476 110.554 20.7949C110.555 20.7956 110.556 20.7962 110.556 20.7969C110.497 20.7862 110.438 20.7771 110.38 20.7664C110.022 20.4505 109.659 20.1378 109.295 19.8307C109.397 19.8368 109.5 19.8433 109.603 19.8499ZM21.3143 19.0081C21.2833 19.2064 20.452 19.8552 21.1191 19.4654C20.8514 19.7279 20.5856 19.9934 20.325 20.2589C20.4381 20.038 20.1727 20.2221 20.0973 20.1914L20.096 20.192C20.5082 19.7729 20.9026 19.3385 21.3143 19.0081ZM22.4717 18.0803C23.6864 17.2341 24.7042 16.1717 24.8739 16.3406C23.7505 17.1898 22.8993 17.978 21.9496 18.9545C21.8582 18.777 22.758 17.7319 22.0019 18.1836C22.2046 17.9938 22.4184 17.7949 22.618 17.6145C22.6186 17.6137 22.6194 17.6132 22.62 17.6125C22.8057 17.4972 22.551 17.8099 22.8218 17.6118C23.0917 17.4132 23.5097 16.9566 23.471 17.132C23.1414 17.4371 22.8 17.7622 22.4717 18.0803ZM104.039 15.9078C102.733 14.9378 102.776 14.6663 103.149 14.7801C103.887 15.34 104.619 15.9229 105.319 16.5047C105.32 16.5052 105.32 16.5061 105.321 16.5067C105.445 17.1208 105.489 16.848 104.352 16.0223C103.957 15.739 104.28 16.0892 104.039 15.9078ZM103.021 15.1593C103.303 15.3733 103.326 15.3951 103.664 15.6788L103.911 15.8906C104.269 16.2056 104.855 16.7388 104.731 16.6986C104.174 16.2333 103.574 15.7469 102.988 15.291C102.996 15.2449 103.018 15.2092 103.021 15.1593ZM26.7017 14.4175C26.4275 14.2728 25.4209 14.7783 25.5575 15.2513C26.4531 14.6649 25.8857 14.7815 26.7017 14.4175ZM98.141 11.425C99.3196 12.0937 100.17 12.633 101.167 13.4738C101.168 13.4745 101.169 13.4751 101.17 13.4758C101.227 13.5242 100.89 13.3734 100.959 13.4447C101.183 13.5911 101.418 13.7394 101.644 13.8887C101.639 13.9573 101.633 14.025 101.628 14.0932C101.025 13.6305 100.413 13.1776 99.7901 12.7346C99.8643 12.8261 99.9409 12.9194 100.014 13.0112C99.4706 12.6588 98.9253 12.3176 98.3719 11.9829C98.6124 12.0241 98.8526 12.0667 99.0913 12.1092C98.777 11.8786 98.4599 11.6504 98.141 11.425ZM33.9685 9.85462C33.0341 10.4372 32.1183 11.0428 31.2176 11.6725C31.2952 11.5794 31.3735 11.486 31.4518 11.3932C32.1583 10.8825 32.874 10.3879 33.5999 9.90756C33.7227 9.88959 33.8458 9.87181 33.9685 9.85462ZM91.7795 8.46492C92.3948 8.63771 93.52 9.25764 94.2425 9.73881C94.2434 9.73926 94.2444 9.73969 94.2452 9.74014C94.4049 9.84573 94.7127 10.1803 94.1704 9.87845C93.2867 9.39064 92.9516 8.96533 92.4055 8.86595C92.2054 8.73353 91.9918 8.59973 91.7795 8.46492ZM89.7737 7.55169C89.226 7.25096 89.5554 7.20147 90.2501 7.5636H90.2508C90.5388 7.71659 89.902 7.57304 91.0204 7.93551C91.1908 8.13447 91.3602 8.32393 91.526 8.51985C91.269 8.39837 91.033 8.29016 90.7617 8.1658C91.019 8.08917 90.3207 7.85319 89.7737 7.55169ZM39.9747 7.09838C38.8547 7.57557 38.6329 7.83089 37.6691 8.14992C38.3953 7.7619 39.1307 7.38769 39.8754 7.02757H39.8761C39.9079 7.05154 39.943 7.07436 39.9747 7.09838ZM37.0834 6.97264C36.24 7.48045 35.973 7.67486 36.4508 7.60066C36.4517 7.60028 36.4525 7.59971 36.4534 7.59933C36.7499 7.37928 37.05 7.16104 37.3501 6.94617C37.2622 6.95452 37.174 6.96268 37.0834 6.97264ZM38.2475 7.03485C39.135 6.50468 38.9139 6.46863 38.401 6.53787C38.2445 6.62946 38.0912 6.72036 37.9358 6.81316C38.0393 6.88718 38.1419 6.96157 38.2475 7.03485ZM43.0744 5.34074C44.5869 4.66504 47.7648 4.07143 43.8798 5.53066C43.9186 5.45459 43.955 5.3797 43.9942 5.30368C42.0534 5.9912 39.8757 6.7711 41.6774 5.77155C42.3529 5.5571 42.2188 5.68981 42.6078 5.62066L42.7402 5.58559C42.9191 5.53298 43.2068 5.43788 43.3371 5.39368C43.2576 5.37274 43.1593 5.35905 43.0744 5.34074ZM82.3891 4.09795C83.2803 4.32033 84.1746 4.56364 85.0593 4.82589C84.7224 4.81253 84.3882 4.80265 84.0521 4.79478C83.4984 4.5536 82.9459 4.32211 82.3891 4.09795ZM52.0439 2.15501C51.6204 2.2171 51.8518 2.26179 51.8077 2.26883C50.7341 2.44601 50.572 2.43646 49.2963 2.81545C49.144 2.87732 48.9949 2.93977 48.8436 3.00339C49.4943 3.07904 49.8938 2.84311 51.1922 2.69832C50.9467 2.66998 50.7015 2.64276 50.455 2.61692C51.1637 2.47266 51.8761 2.34027 52.5852 2.22119C52.6646 2.18095 52.7444 2.14069 52.8241 2.10075C52.5658 2.11717 52.2986 2.13322 52.0439 2.15501ZM54.1146 2.3231C53.1172 2.49026 52.0795 2.68699 51.05 2.91074C51.3481 3.06501 50.9704 3.0751 52.1789 2.78832C52.519 2.69252 55.3112 2.29937 54.1146 2.3231ZM73.7755 2.54942C73.6285 2.40537 75.0335 2.41051 75.8991 2.52626C76.0237 2.66618 76.1477 2.80667 76.273 2.9478C75.1695 2.59588 74.9341 2.62031 73.7755 2.54942ZM60.0493 1.55215C58.4949 1.86357 61.7526 1.54814 60.664 1.74604C59.7951 1.89684 58.6336 1.80338 59.056 1.6395C59.3579 1.60954 59.6949 1.57948 60.0466 1.55215C60.0475 1.55208 60.0484 1.55221 60.0493 1.55215Z" fill="var(--fill-0, #4E4E4E)"/>
</g>
</svg>
