<svg width="67" height="67" viewBox="0 0 67 67" fill="none" xmlns="http://www.w3.org/2000/svg">
<path fill-rule="evenodd" clip-rule="evenodd" d="M21.8448 51.925C21.0771 53.5302 21.0771 52.8323 21.0073 54.7865L19.6115 54.4375C20.5885 54.1583 20.2396 53.6698 20.3094 52.5531L21.8448 51.925ZM20.0302 50.3198C20.0302 50.3198 18.9833 49.6219 19.4719 52.6229V52.6927C19.4719 53.1812 18.9833 52.274 19.6812 53.3208C19.6812 53.3208 19.8208 53.5302 19.8906 53.6C20.2396 52.8323 20.0302 50.4594 19.8906 50.25L20.0302 50.3198ZM37.5479 18.2854L39.9208 17.5875L40.6885 17.6573C41.4562 17.7271 41.5958 18.6344 40.4792 18.5646C39.2229 18.4948 40.8979 18.2156 38.874 18.1458L39.6417 18.4948C39.0135 18.4948 38.525 18.425 38.1063 18.425C37.6875 18.425 37.2687 18.5646 36.6406 18.5646L37.5479 18.2854ZM48.3656 43.3406C48.3656 43.3406 48.5052 43.2708 48.7844 42.7125C49.2729 41.6656 48.575 42.224 49.4823 41.875C49.4823 42.0146 49.901 41.7354 49.6917 42.8521C49.6219 43.2708 49.4125 43.4104 49.2031 43.899L48.3656 43.3406ZM11.6552 46.3417C12.8417 45.7833 12.7021 45.6437 13.6792 46.9C13.1208 47.0396 12.7719 47.249 12.074 46.7604C11.725 46.551 11.8646 46.551 11.6552 46.2719V46.3417ZM11.725 48.0865L12.7719 47.9469C12.3531 49.4125 12.9812 48.7844 11.7948 49.1333C11.7948 49.1333 11.376 49.1333 11.7948 48.0167L11.725 48.0865ZM34.3375 34.8958C34.8958 35.524 35.7333 35.8031 35.0354 36.5708C34.9656 36.501 34.6865 36.4312 34.4771 35.9427C34.2677 35.3844 34.3375 35.5938 34.4073 34.8958H34.3375ZM42.224 18.076C43.1312 17.5177 42.9219 17.8667 43.9688 18.2854L42.8521 18.6344C42.4333 18.076 42.3635 18.2156 42.224 18.1458V18.076ZM8.23542 5.025C8.02604 5.44375 7.95625 5.72292 7.67708 6.21146L7.39792 5.79271C7.39792 5.79271 7.25833 5.58333 7.39792 5.37396C7.67708 4.81562 6.97917 5.16458 8.30521 5.025H8.23542ZM20.9375 55.1354L21.2865 55.624C21.6354 56.0427 21.2865 55.7635 21.7052 56.0427C20.9375 56.5312 20.8677 56.0427 20.9375 55.1354ZM29.9406 25.7531L30.9177 26.1719L29.5917 26.3812C30.0802 25.8927 29.9406 26.6604 29.9406 25.7531ZM34.1281 18.774L34.2677 19.1927L33.5 19.3323C33.5698 18.5646 33.2208 18.8438 34.1281 18.774ZM63.4406 5.8625C63.999 5.44375 63.999 5.65313 64.3479 5.8625L63.999 6.07188C63.301 6.07188 63.999 6.21146 63.4406 5.8625ZM45.6437 14.6562L46.2021 15.1448C45.7135 15.0052 45.7135 15.1448 45.6437 14.6562ZM60.5792 5.025C60.3 5.58333 60.5792 5.44375 59.951 5.51354L60.5792 5.025ZM29.4521 14.4469C29.4521 14.4469 29.9406 13.749 29.6615 14.4469C29.5917 14.6562 29.3823 14.7958 29.4521 14.4469ZM40.1302 21.2167C40.1302 21.2167 40.4792 20.7281 40.3396 21.2167C40.2698 21.426 40.1302 21.4958 40.1302 21.2167ZM6.7 43.201C6.7 43.201 7.18854 42.7125 6.90937 43.1312C6.90937 43.1312 6.56042 43.4802 6.7 43.201ZM48.3656 40.2C48.3656 40.2 48.5052 40.0604 48.5052 39.9906L48.3656 40.2ZM14.9354 47.1792C14.5167 46.1323 14.4469 46.4812 14.7958 45.2948C15.3542 45.4344 15.5635 45.5042 15.9125 45.8531C16.401 46.2719 16.3312 46.2719 16.3312 47.1094H14.9354V47.1792ZM44.2479 21.2865C44.2479 21.2865 44.2479 20.7979 45.0854 20.8677C45.4344 20.8677 45.574 21.2167 45.7833 21.3562C45.225 22.0542 44.9458 22.8917 44.2479 21.3562V21.2865ZM14.5167 11.9344V11.3062H16.401V12.2833C16.401 12.2833 16.401 12.2135 16.401 12.1438L16.0521 11.9344C16.0521 11.9344 14.726 11.9344 14.6562 11.9344H14.5167ZM51.4365 18.8438V17.5177C51.8552 17.5875 51.4365 17.3781 51.7854 17.5875L52.2042 17.9365C52.2042 17.9365 52.274 18.076 52.274 18.1458C52.4135 18.9135 51.9948 18.9833 51.4365 18.8438ZM58.1365 12.3531V11.4458C59.7417 11.4458 58.5552 11.8646 59.4625 12.2833H58.1365V12.3531ZM44.4573 15.9125C44.876 16.401 44.3875 16.1219 45.225 16.1917L45.3646 17.3083C44.4573 17.0292 44.3875 16.8896 44.4573 15.9125ZM28.6146 41.1771L28.7542 40.1302L29.5917 40.9677L28.6844 41.1771H28.6146ZM34.1281 16.6104C34.5469 16.75 34.4073 16.6104 34.6865 16.9594C35.175 17.5875 34.6865 16.8198 35.175 17.8667C34.4771 17.4479 34.4771 17.6573 34.1281 16.6802V16.6104ZM2.79167 6.21146L2.30313 5.23438C3.14062 5.44375 2.44271 5.58333 3.14062 5.51354C3.14062 6.63021 3.00104 5.72292 2.79167 6.21146ZM6.56042 8.09583L7.04896 7.74687C7.46771 7.39792 7.18854 7.74687 7.46771 7.32812C7.95625 8.09583 7.46771 8.16562 6.56042 8.09583ZM46.2719 27.0792C47.1792 27.4979 46.1323 27.149 47.0396 27.7073C45.6437 27.9167 46.2021 28.126 46.2719 27.0792ZM48.575 21.426C49.3427 20.8677 49.2031 20.7979 49.2729 21.8448C48.6448 21.426 49.4125 21.7052 48.575 21.426ZM3.48958 4.25729L3.35 3.28021C3.76875 3.00104 3.62917 3.14062 3.90833 2.58229L3.48958 4.25729ZM36.0823 17.9365C36.2917 18.3552 36.0823 18.6344 36.85 18.425C36.85 18.425 36.7802 18.2854 36.4312 18.076C35.5937 17.5177 37.4083 18.425 36.0823 17.9365ZM32.1042 32.8719C32.4531 32.5927 32.6625 32.7323 32.9417 33.2208L32.1042 32.8719ZM46.4115 18.4948L46.6208 19.1927C46.2719 18.9833 46.4115 19.4719 46.2719 18.9135C46.1323 18.076 46.2021 18.9135 46.4115 18.4948ZM55.6937 14.3771C55.6937 14.3771 55.2052 13.9583 55.6937 14.1677C55.8333 14.1677 56.1823 14.5167 55.6937 14.3771ZM45.5042 23.2406L46.0625 23.5198C45.2948 23.5198 45.7135 23.7292 45.5042 23.2406ZM41.1073 28.126C41.2469 27.5677 41.0375 27.8469 41.526 27.6375L41.1073 28.126ZM36.3615 30.0104L36.2219 29.5219C36.2219 29.5219 36.3615 29.5219 36.2219 29.3823C36.6406 28.475 36.2219 28.475 37.199 29.2427C37.199 29.2427 36.9198 29.5219 36.85 29.5219C36.501 29.5917 36.3615 29.6615 36.2917 29.6615C36.5708 29.8708 36.6406 29.6615 36.2917 30.0802L36.3615 30.0104ZM57.9969 57.3687C59.4625 57.3687 59.5323 58.7646 59.3229 59.1135C59.3229 59.1135 59.2531 59.2531 59.1833 59.2531L58.4854 59.6021C57.8573 58.8344 57.9271 58.4156 57.9969 57.3687ZM22.5427 44.4573C23.6594 45.0854 23.101 44.8062 22.8219 45.8531C22.4729 47.3187 23.45 46.9 22.5427 47.8073C22.0542 47.1094 21.8448 45.1552 22.5427 44.4573ZM54.7167 12.7021H55.624C55.624 12.7021 55.7635 12.9115 55.624 13.3302C55.3448 13.8187 55.624 13.4698 55.2052 13.749C54.7167 13.4 54.7167 13.749 54.7865 12.7719L54.7167 12.7021ZM52.6229 47.3885L53.6698 48.2958C52.3438 47.9469 52.6927 48.575 52.6229 47.3885ZM27.4979 23.6594C27.4979 23.6594 27.4979 23.7292 27.2188 24.1479C27.0094 24.4969 27.149 24.3573 26.9396 24.5667C26.5208 23.5896 26.9396 23.8687 27.4281 23.6594H27.4979ZM49.6917 15.6333V16.6104C49.6917 16.6104 48.9937 16.401 49.6917 15.6333ZM27.5677 37.0594C27.0792 37.7573 27.9167 37.6177 26.8 37.5479C27.149 37.4083 26.5906 37.7573 27.0792 37.3385C27.4979 36.9896 27.0094 37.199 27.4979 37.0594H27.5677ZM27.8469 13.1906C27.8469 13.1906 28.4052 12.5625 28.126 13.1906C27.9865 13.4698 27.7073 13.6094 27.8469 13.1906ZM17.3083 10.3292C17.099 10.8875 17.7271 10.6781 16.75 10.6781L17.3083 10.3292ZM55.275 11.2365C55.275 11.2365 55.7635 10.6781 55.5542 11.0969C55.1354 11.9344 56.3917 10.6083 55.4844 11.1667C55.2052 11.376 55.275 11.3062 55.275 11.1667V11.2365ZM59.1135 54.0885C57.9969 53.4604 59.5323 53.251 58.7646 52.1344C60.5792 51.6458 59.1833 51.925 59.7417 52.4135C59.1833 53.0417 59.6021 52.6927 59.1833 53.949C59.1833 53.949 59.1833 54.0885 59.1135 54.1583V54.0885ZM55.6937 39.9906C54.7865 39.9906 54.926 39.6417 55.0656 38.7344H55.9031C55.9031 38.7344 56.0427 39.1531 55.9031 39.4323C55.7635 39.9208 55.8333 39.7115 55.624 39.9906H55.6937ZM36.2219 22.4031C36.4312 21.0073 37.6177 21.0073 37.0594 22.9615C36.501 22.7521 36.6406 22.8219 36.2219 22.4031ZM55.624 9.98021C56.6708 9.70104 56.8802 9.42188 57.3688 10.1896L57.7177 10.8177C56.3219 10.6083 57.8573 10.5385 56.2521 10.05C56.2521 10.05 55.6937 9.98021 55.5542 9.98021H55.624ZM60.8583 56.1125C60.1604 55.9729 60.649 56.2521 60.1604 55.6937C59.6719 55.2052 60.3 55.4844 59.7417 55.2052C60.7188 54.9958 61.3469 55.2052 60.8583 56.1125ZM50.4594 33.9187C50.7385 33.151 50.4594 33.5698 51.2969 33.2906C51.0875 33.6396 51.5062 33.7792 50.4594 33.9187ZM42.0146 36.9896C42.5729 36.4312 42.1542 36.7104 42.7125 36.6406C42.5031 37.2687 43.0615 36.9198 42.0146 36.9896ZM18.8438 14.726L19.751 15.0052C18.3552 15.0052 18.9833 15.2146 18.8438 14.726ZM62.324 2.44271L62.4635 2.93125C61.6958 2.79167 61.975 2.79167 62.324 2.44271ZM56.4615 12.3531C56.4615 11.6552 56.2521 11.9344 56.8802 11.7948L56.4615 12.3531ZM47.4583 44.5271C47.4583 44.5271 47.1094 44.1781 47.4583 44.3177C47.5979 44.3177 47.8771 44.5969 47.4583 44.5271ZM32.4531 20.7281V20.5187C32.9417 20.3792 32.4531 20.6583 32.4531 20.7281ZM19.8906 18.6344C19.8906 18.6344 19.751 18.9135 20.0302 18.6344C20.2396 18.425 20.1 18.425 19.8906 18.6344ZM20.8677 41.4562C19.5417 41.9448 20.3792 41.3865 20.1 42.3635C21.0073 42.0844 20.6583 42.4333 20.8677 41.4562L21.9146 40.4094C21.9146 40.4094 21.9146 40.0604 21.9146 39.9208C21.3563 40.549 20.9375 41.1771 20.8677 41.3865V41.4562ZM22.2635 40.549C22.2635 40.549 22.2635 40.8281 22.2635 41.875C23.5198 42.2938 23.5198 42.1542 23.799 42.7823L19.6115 42.4333C19.2625 42.9219 18.8438 43.4802 18.425 43.8292C18.425 43.9687 18.425 43.8292 18.2156 44.3177C17.7969 44.1083 17.6573 44.1781 17.4479 43.9687C16.8896 43.9687 16.1917 43.7594 15.4937 43.55C15.5635 43.8292 15.7031 44.1083 15.7729 44.4573C15.2844 44.5271 14.3073 45.0156 13.8187 43.0615C13.5396 42.9917 13.3302 42.9219 13.1208 42.8521C13.1208 42.8521 13.1208 42.8521 13.1208 42.9219C13.051 43.0615 12.6323 43.4104 12.8417 42.9219C12.8417 42.9219 12.9812 42.7823 13.051 42.7125C12.9812 42.7125 12.9115 42.7125 12.8417 42.7125C11.4458 42.3635 12.3531 42.6427 11.376 42.7823C10.7479 42.0146 9.07292 41.3865 7.88646 41.526C8.23542 41.7354 8.51458 42.0146 8.79375 42.224C8.79375 42.5031 8.79375 43.4104 8.79375 43.6198C8.72396 44.1083 8.79375 43.6198 8.72396 44.0385C8.51458 44.4573 8.51458 44.2479 8.30521 44.4573C8.16563 44.1083 8.23542 44.3875 8.16562 43.9687C8.16562 43.9687 8.23542 43.7594 8.16562 43.4802C7.95625 42.9219 7.32812 42.7125 6.97917 42.0844C6.21146 42.7125 4.88542 43.7594 4.53646 44.1781C4.53646 44.3875 4.81562 44.5969 5.16458 44.9458C5.72292 44.9458 5.44375 44.9458 5.8625 45.1552C5.79271 45.1552 5.72292 45.2948 5.65312 45.3646C7.46771 46.6906 10.6781 48.575 11.4458 49.0635C12.4927 49.6917 13.051 50.3896 14.3073 50.5292L13.6094 50.8781V52.8323C14.726 53.3208 14.9354 53.1115 16.0521 52.9719C17.1687 54.3677 21.2865 61.5562 22.3333 62.2542C22.8917 61.975 24.6365 59.6719 25.1948 59.1135C25.1948 59.0437 25.1948 58.9042 25.1948 58.6948C25.1948 58.6948 25.0552 58.7646 24.9854 58.8344C24.9854 58.8344 24.9854 58.4156 25.125 58.2062C25.125 57.9969 25.0552 57.7177 24.9854 57.4385C24.6365 57.2292 24.5667 56.8802 24.6365 56.1125C24.2875 54.7167 23.799 53.0417 23.3802 51.5062C22.2635 51.5062 23.1708 51.3667 22.6823 51.1573L23.1708 50.8781C22.8917 49.8312 22.6823 48.8542 22.6823 48.2958L24.6365 46.6906C25.6833 45.9229 26.1719 45.7833 26.0323 44.3177C26.9396 44.6667 27.3583 44.4573 27.9865 43.7594C27.9865 43.6198 27.8469 43.3406 27.7073 42.9917C28.126 43.201 28.1958 43.3406 28.2656 43.3406C28.6844 42.9219 29.1729 42.3635 29.8708 41.8052C30.4292 41.3167 31.1271 40.7583 31.7552 40.2C32.1042 39.9208 32.3833 39.6417 32.6625 39.3625L33.0812 39.0135C33.5698 38.5948 33.0812 39.2229 33.5 38.525L33.2208 38.3156C32.4531 37.9667 32.5927 38.3156 32.1042 37.5479C35.1052 37.5479 33.7094 38.525 37.4781 35.1052C37.4781 35.1052 37.5479 35.0354 37.6177 34.9656C37.9667 34.6865 37.9667 34.6865 38.3854 34.5469C39.6417 36.2917 40.4792 38.176 42.224 38.4552C40.8979 38.6646 43.201 40.9677 43.4802 41.526C43.8292 42.3635 43.55 41.9448 44.1781 42.4333C45.2948 42.224 44.3177 42.7125 44.5271 42.1542C45.8531 41.8052 44.8062 42.5031 44.8062 42.8521C44.8062 43.6896 44.1083 42.3635 45.5042 44.1781C45.6437 44.3177 45.7135 44.3875 45.7833 44.5271L49.0635 48.7844C49.0635 48.7844 49.4823 49.0635 49.7615 49.2729H49.3427L50.25 50.3896C50.25 50.25 50.25 50.1104 50.3896 49.9708C51.0875 50.3896 51.0177 50.5292 51.2271 51.5062C51.2271 51.5062 51.0875 51.5062 51.0177 51.4365L52.0646 52.9021C52.5531 52.6229 53.3208 52.5531 54.2979 52.1344C54.5073 52.0646 54.5073 51.925 54.7167 51.925C55.1354 51.3667 55.6937 51.0177 56.3917 50.8781C56.4615 50.4594 56.3917 50.1104 57.299 50.0406V50.9479C57.5781 51.4365 57.5781 51.3667 57.8573 51.8552C57.7177 51.8552 57.5781 51.925 57.4385 51.9948V52.4833H57.3688C57.3688 53.1115 57.1594 52.9021 57.0198 53.1115C56.601 53.0417 56.3219 53.0417 56.2521 52.8323C56.1125 52.9719 55.9729 53.1812 55.8333 53.3906C55.5542 53.3208 55.3448 53.1812 55.2052 53.1115C54.9958 53.1115 54.5771 53.251 54.0187 53.7396C52.4833 54.926 54.7167 53.3906 53.6 54.0885C53.3906 54.2281 53.3208 54.2979 53.1812 54.2979L53.8792 55.275L54.1583 54.7865C54.4375 55.2052 54.4375 55.5542 54.4375 56.0427L57.9271 60.7885C58.3458 61.2771 58.1365 60.8583 58.4854 61.4865C59.6021 63.2312 61.1375 65.6042 62.4635 66.8604C63.7896 66.2323 63.4406 65.3948 64.6969 64.6969C65.4646 64.2781 65.325 64.2781 65.8833 63.5802C66.3719 63.0219 66.7208 62.8125 67 62.1844C66.8604 62.1146 67.349 61.6958 66.0927 62.0448C65.8135 62.1146 65.6042 62.324 65.0458 62.6031C64.7667 61.2771 63.999 59.8115 63.3708 58.4854C62.9521 57.5781 62.8125 56.8104 62.3937 56.1823L61.626 56.6708C60.5792 58.3458 59.4625 57.2292 60.0906 56.6708C60.9281 56.3219 60.649 56.601 61.626 56.6708C61.9052 56.0427 61.8354 55.7635 61.7656 55.4844C61.5563 55.275 61.2771 55.1354 60.9979 54.926L61.4167 53.949L60.7187 53.6C60.9979 53.1812 60.9979 52.9021 60.9979 52.6927C60.7187 52.4833 60.5094 52.2042 60.2302 51.7854C60.4396 51.6458 60.649 51.5062 60.8583 51.4365C60.9979 51.1573 61.2771 50.8781 61.7656 50.4594C61.7656 50.4594 61.8354 50.3896 61.975 50.3198C61.975 50.25 62.0448 50.1802 62.1146 50.1104C62.0448 49.2729 61.975 49.4125 61.2771 48.8542L59.5323 49.2729C59.0437 48.226 57.1594 44.1083 56.3219 41.7354L55.6937 42.5031L55.2052 41.9448L56.3219 41.8052C56.0427 41.0375 55.8333 40.4792 55.8333 40.2698L56.95 39.0135H56.4615C56.7406 38.5948 56.7406 38.5948 56.8104 38.525C56.4615 37.7573 55.6937 37.6875 55.2052 37.6177C54.3677 37.3385 55.0656 37.6177 54.7167 37.3385L54.3677 36.9198C54.3677 36.9198 54.2979 36.85 54.2281 36.7802C54.2281 36.7802 54.1583 36.6406 54.0885 36.6406V36.7802C53.3906 37.1292 53.6 37.199 53.0417 36.7802C53.5302 36.5708 53.7396 36.4312 53.949 36.3615C53.7396 36.0823 53.6698 35.8031 53.4604 35.3146L52.4833 33.9885C52.5531 32.4531 51.4365 30.6385 50.9479 29.3125C50.7385 28.8937 50.5292 28.4052 50.3198 27.9865V28.7542C49.1333 28.6146 49.2729 28.1958 49.1333 27.0792C48.5052 27.2188 48.9937 27.2188 48.4354 26.2417C48.0865 25.6833 48.0865 25.5437 48.1562 25.1948H47.8073L47.5281 23.799C47.3885 23.799 47.249 23.6594 47.1094 23.6594C47.4583 23.2406 47.249 23.6594 47.4583 23.101C47.4583 23.101 47.5979 23.1708 47.5979 23.2406C48.3656 22.6823 49.0635 22.124 50.1104 22.1938C49.4823 22.3333 49.6219 21.775 49.0635 24.5667C49.1333 24.5667 49.2729 24.3573 49.3427 24.4271C49.3427 24.4271 49.6219 24.2177 49.7615 24.1479L51.1573 22.8219C51.7156 22.2635 52.4135 21.8448 52.3438 21.0073C53.6698 20.9375 53.1115 20.5188 53.949 20.1C54.9958 19.4719 54.7865 19.6812 55.2052 18.5646C56.8104 17.7271 61.4865 12.4927 63.0219 9.91042C62.9521 9.91042 62.8125 9.91042 62.6729 9.98021V8.79375C63.1615 8.93333 63.301 9.00312 63.3708 9.07292C63.7198 8.30521 63.65 8.02604 64.1385 7.18854C64.4177 6.76979 64.5573 6.28125 64.6271 5.8625C64.4875 5.44375 64.3479 5.37396 64.5573 4.81562C64.3479 4.81562 64.5573 4.81562 64.2083 4.32708C64.4177 4.39687 64.4875 4.46667 64.5573 4.46667C64.2781 3.48958 63.5802 2.72188 62.4635 2.23333C61.3469 1.81458 59.4625 2.44271 57.5083 3.55937C57.6479 3.55937 57.8573 3.55938 58.1365 3.76875C58.4156 3.97813 58.4854 4.39687 58.625 4.67604C57.299 4.11771 58.974 4.74583 57.8573 4.11771L57.5083 3.97812H57.3688H57.2292C57.2292 3.97812 57.2292 3.83854 57.3688 3.69896C54.9958 5.09479 52.6927 6.97917 51.7854 8.23542L53.949 7.88646L54.4375 6.97917C55.2052 7.11875 55.8333 7.04896 56.2521 7.74687L55.9031 7.95625C54.9958 8.16562 54.5073 7.95625 53.1115 8.79375H53.3906C53.3906 9.63125 53.3906 9.77083 52.4833 9.70104C52.4833 9.49167 52.4833 9.35208 52.4833 9.2125C51.576 8.65417 52.5531 9.00313 51.5062 8.72396C49.6917 9.42188 44.2479 16.1219 42.224 17.7271C40.6885 17.7271 39.2927 16.6104 37.9667 16.2615C37.4083 16.6104 37.4781 16.6802 37.3385 16.75C37.4781 17.0292 37.3385 17.0292 37.8969 17.099C38.1062 17.099 38.9437 17.099 39.2229 17.099L37.199 17.2385V16.75C37.199 16.75 36.9896 16.75 36.7802 16.8198C37.0594 17.5177 36.9198 17.2385 36.7802 17.7271C36.501 17.5875 36.2917 17.8667 36.3615 17.2385C36.3615 16.8198 36.5708 16.6802 36.6406 16.6802C36.7802 16.401 36.85 16.1917 37.0594 15.7031C35.524 16.1219 35.3146 16.3313 34.9656 14.7958C34.2677 14.6563 33.7792 14.4469 33.151 14.0979C32.8021 13.8885 31.6854 13.5396 31.476 13.1906C30.6385 13.8187 31.1969 13.8188 30.3594 13.6792C30.3594 12.8417 30.0802 13.6094 30.7083 12.8417L29.5917 12.4229C29.0333 12.074 29.3823 12.2833 29.1031 12.074V11.4458C29.1031 11.4458 28.8938 11.4458 28.5448 11.4458C28.5448 11.4458 27.8469 12.2833 27.6375 12.8417C27.4979 13.1906 27.6375 13.1906 27.4979 13.4698C26.7302 15.6333 26.5208 17.099 25.125 17.6573C25.125 17.8667 25.125 18.2156 25.125 18.774C24.9156 21.1469 24.0781 19.2625 23.2406 20.8677C23.2406 20.8677 23.2406 20.7281 23.101 20.7281C23.0312 20.7281 23.0312 20.5885 22.9615 20.5885C22.4031 20.1698 21.775 20.0302 21.1469 20.0302L22.8917 21.3562C24.0781 22.2635 24.0781 22.4031 25.8229 22.6823C25.1948 22.8917 25.5438 22.6823 25.474 23.3104L26.8698 24.3573C28.2656 25.4042 27.7073 24.8458 28.5448 25.3344L30.5688 27.0792C30.5688 27.0792 31.3365 27.5677 31.7552 27.9167C32.4531 28.475 31.8948 28.5448 32.7323 28.6844C33.9885 28.824 32.2438 28.4052 33.5 28.5448C34.6865 28.6844 33.7094 28.475 34.1281 28.9635C33.849 29.0333 34.1281 29.0333 33.5 29.1031C31.5458 29.1031 32.5229 28.824 31.3365 29.6615C31.476 29.7312 31.6156 29.8708 31.8948 29.9406C33.2906 29.2427 34.3375 28.9635 36.0823 28.8937C35.4542 29.3125 35.524 29.3823 35.3146 30.3594C34.9656 30.2198 34.6865 30.2198 34.4771 30.3594C34.6865 30.6385 34.826 30.7781 34.9656 31.0573L35.2448 32.0344L37.4781 31.8948L37.6177 32.8719C35.8729 33.7094 35.9427 33.2208 35.2448 33.6396C34.1979 32.4531 35.4542 32.8719 33.5698 32.1042C33.0115 32.2437 33.0115 32.174 32.9417 31.825C32.6625 31.6854 32.4531 31.6156 32.3135 31.476C31.476 31.476 30.7083 31.476 30.0104 31.825C30.0104 31.1969 30.0104 31.3365 29.9406 31.1271L28.4052 32.8021C29.1031 32.8719 28.8937 32.5927 28.8937 33.5C28.1958 33.3604 28.4052 33.5 28.3354 32.9417L26.6604 34.6865H26.7302H26.5906L23.8687 37.6177C24.2875 37.6875 24.6365 37.8271 25.0552 38.1062C25.0552 39.0135 24.776 39.7115 24.2875 40.0604L23.7292 40.4094C23.7292 40.4094 23.5896 40.4792 23.5198 40.549L22.4031 40.3396L22.2635 40.549ZM50.0406 27.6375C48.924 28.126 49.901 27.6375 48.9937 27.0094C49.4125 26.1719 49.2031 25.8927 48.8542 25.3344H48.9937C48.9937 25.3344 49.1333 25.6135 49.1333 25.6833L49.7615 27.2188C49.7615 27.2188 49.901 27.4979 49.901 27.5677L50.0406 27.6375ZM28.0562 10.1896H27.9167C25.8927 11.6552 26.9396 11.4458 24.4969 10.5385C23.101 9.98021 23.5896 10.6083 22.4729 10.6781L22.6125 9.56146C22.124 9.49167 21.1469 9.14271 20.1698 8.72396C19.5417 9.2125 19.3323 9.14271 18.5646 8.65417L18.2854 8.44479V9.14271H18.2156C17.4479 9.42188 18.774 9.14271 18.2156 9.14271C18.2156 9.14271 18.076 9.14271 17.9365 9.14271C17.5875 9.14271 17.6573 9.00313 17.3083 9.56146C16.8198 8.65417 16.9594 9.14271 16.8198 8.02604H17.7271C16.6104 7.32812 16.1219 6.90937 15.9823 5.58333C15.5635 5.93229 15.4937 6.21146 15.3542 6.35104C15.3542 6.56042 15.6333 6.35104 15.0052 6.7H14.9354V6.90937H14.726C14.726 6.90937 14.5167 6.90937 13.9583 6.90937V6.76979H13.8885C13.6094 6.28125 13.6094 6.14167 13.6792 5.8625C12.9115 5.51354 11.6552 5.025 9.84062 4.25729L9.07292 3.97812C8.79375 4.60625 8.16562 4.67604 5.79271 3.97812C4.39687 3.62917 4.81562 3.55937 4.53646 3.28021C5.44375 3.41979 6.42083 3.28021 7.46771 3.28021C6.7 2.93125 6.00208 2.37292 4.39687 1.95417C4.46667 1.39583 4.46667 1.46562 4.60625 1.25625C4.95521 0.697917 4.60625 1.46562 4.95521 0.8375C5.30417 0.279167 5.16458 0.558333 4.95521 0C3.97812 0 2.72187 1.74479 1.39583 3.07083C2.02396 3.28021 1.46563 3.48958 3.48958 4.60625L2.86146 5.09479C1.95417 4.60625 2.23333 4.60625 1.88437 4.04792H0.348958C0.348958 4.04792 0.0697917 4.39687 0 4.60625C0.558333 5.16458 2.58229 6.63021 3.48958 7.25833C4.04792 7.25833 5.37396 7.11875 6.14167 7.11875C4.88542 8.65417 6.14167 9.35208 8.65417 11.1667C8.93333 10.9573 8.65417 10.9573 9.14271 11.1667H8.79375C9.42188 11.6552 10.1896 12.2135 10.9573 12.7719C11.6552 13.3302 12.7021 14.0979 13.5396 14.6562C16.0521 16.6104 15.2844 16.2615 16.6104 16.1917H16.6802C16.6802 16.1917 16.6802 16.1917 16.6802 16.2615C16.8896 16.401 16.6802 16.1219 16.9594 16.6104C17.0292 16.75 17.1688 17.099 17.2385 17.5177C17.7271 18.076 18.6344 18.5646 19.6812 19.3323C19.6812 19.3323 19.751 19.3323 19.8208 19.3323C21.426 19.6115 23.1708 20.5885 23.7292 19.3323C24.2177 18.3552 23.2406 19.1927 24.1479 18.425C23.8687 18.2156 23.7292 18.0062 23.2406 17.6573C23.45 16.1219 22.8219 16.6802 23.7292 15.8427C24.776 16.8198 23.7292 16.401 24.4969 17.3781C24.5667 17.5177 24.7062 17.5177 24.8458 17.5875C25.0552 17.0292 24.8458 17.2385 25.0552 16.75C25.4042 15.3542 27.149 11.1667 28.0562 10.3292V10.1896ZM17.8667 6.49062C17.8667 6.49062 17.2385 6.14167 16.75 6.00208C16.8896 5.65312 16.9594 6.56042 16.8896 5.58333C16.8896 5.37396 16.75 5.16458 16.6802 4.95521C16.75 4.95521 16.8896 4.88542 16.9594 4.81562C17.6573 5.23438 17.7271 5.30417 18.1458 6.07188C18.076 6.28125 18.0062 6.35104 17.9365 6.49062H17.8667ZM30.499 30.6385C30.499 30.6385 30.7083 30.6385 30.7781 30.6385L30.2198 30.9177L30.499 30.5687V30.6385ZM19.6812 48.575C19.1927 47.8073 19.3323 47.8771 19.3323 46.9C19.8906 47.1792 20.3094 47.3885 20.3792 47.8771C20.5187 48.7844 20.1 48.4354 19.6812 48.5052V48.575ZM54.8563 43.8292C54.8563 43.8292 54.8563 43.7594 54.8563 43.6896L56.1125 42.9917C56.0427 43.55 56.0427 43.6896 55.5542 44.0385C54.7865 44.5969 55.4146 44.3875 54.8563 44.1083V43.8292ZM49.2031 37.5479L50.1802 37.2687C50.9479 37.2687 50.6687 37.2687 51.0177 37.5479C50.6687 37.8271 51.0177 37.7573 50.5292 37.9667C50.3198 38.0365 50.1802 38.1062 49.901 38.0365C49.2031 37.9667 49.6917 38.0365 49.1333 37.5479H49.2031ZM42.6427 37.5479C42.7823 38.1062 42.9917 38.525 44.0385 38.7344C43.55 38.1062 43.8292 38.7344 43.8292 37.8271C45.0854 37.4781 44.5969 37.7573 45.0854 36.85C44.2479 37.0594 43.55 37.3385 42.6427 37.6177V37.5479ZM49.2031 34.1979L49.901 35.4542L48.6448 35.2448L49.2031 34.1979ZM41.0375 35.6635C38.9437 36.0125 39.4323 35.4542 39.2927 35.0354C39.2927 35.0354 39.7812 34.4771 40.6188 34.8958C41.1771 35.175 40.9677 35.2448 41.1073 35.6635H41.0375ZM32.174 35.1052L32.7323 35.2448C32.3833 35.9427 30.4292 35.7333 30.2198 34.3375C31.9646 34.0583 30.9177 34.4771 32.174 35.0354V35.1052ZM44.4573 27.9865C44.7365 28.475 44.9458 28.824 45.0156 29.5219C44.5969 29.3823 44.3177 29.3823 44.1781 28.9635C43.7594 27.9167 44.4573 27.9865 44.4573 27.9865ZM35.2448 25.474C35.3844 26.3813 35.0354 25.8927 34.9656 25.9625C34.4771 25.7531 34.6865 26.3115 34.5469 25.474C34.2677 24.2875 34.5469 25.4042 34.7562 24.9156C35.4542 25.1948 35.1052 24.4271 35.3146 25.474H35.2448ZM29.4521 22.0542C27.4979 22.4031 28.6844 22.1938 27.8469 20.7281H27.7771C27.7771 20.7281 27.149 20.8677 27.0792 20.8677C27.149 19.6812 27.0792 19.8208 28.4052 19.6812V20.5187C28.475 20.5187 28.5448 20.7281 28.824 21.0073L28.9635 21.1469C28.9635 21.1469 29.1031 21.0073 29.2427 20.8677C29.2427 20.8677 29.3823 21.0771 29.4521 21.0073C29.4521 20.9375 29.7313 21.426 30.4292 21.6354L29.3823 21.775V22.0542H29.4521ZM29.1031 20.3094C29.2427 19.6115 28.6844 20.5187 29.3125 19.6812C30.0104 18.6344 30.7083 19.6115 30.7083 19.6115C30.7083 19.6115 30.8479 21.0073 29.1031 20.3792V20.3094ZM22.7521 17.2385C22.7521 17.2385 23.0312 17.5875 23.3104 17.8667C22.1937 17.8667 22.124 18.076 22.0542 16.8896C22.4729 16.9594 22.3333 16.8198 22.8219 17.2385H22.7521ZM21.5656 15.6333C21.9146 14.2375 21.3563 15.2146 22.3333 14.5167C23.799 13.4 22.3333 13.6094 25.6833 13.6792L25.474 15.0052L22.2635 14.726C22.0542 15.5635 22.0542 15.2844 21.4958 15.7031L21.5656 15.6333ZM52.2042 13.5396C52.2042 13.5396 52.0646 13.051 52.9021 13.2604C53.6 13.4698 53.0417 13.1906 53.251 13.749C53.251 13.749 52.9719 15.0052 52.2042 13.4698V13.5396Z" fill="#3F3F3F"/>
</svg>
