<svg width="262" height="173" viewBox="0 0 262 173" fill="none" xmlns="http://www.w3.org/2000/svg">
<g clip-path="url(#clip0_461_97115)">
<path d="M22.0408 56.7652C21.9363 57.1254 21.0068 57.7479 20.0578 58.4032C35.6951 61.1643 50.8722 60.6452 65.793 58.2144C66.2185 58.1356 66.6245 58.0896 67.05 58.0107C76.8503 55.1375 85.4663 53.9804 95.3714 51.1922C95.5809 51.1397 95.8166 51.0806 96.0457 50.9954C96.2814 50.9363 96.4909 50.8838 96.72 50.7986C97.1652 50.687 97.571 50.5297 98.0096 50.3919C101.355 49.6371 105.367 46.8784 108.209 47.1125C108.445 47.0534 108.674 46.9682 108.877 46.8895C110.16 46.4567 111.443 46.0238 112.7 45.5975C112.936 45.5385 113.165 45.4532 113.394 45.368C115.848 43.2779 119.076 42.8309 122.231 42.3185C122.467 42.2594 122.69 42.148 122.925 42.0889C124.844 41.4135 126.762 40.738 128.653 40.0691C129.086 39.9052 129.498 39.774 129.93 39.6101C132.916 39.8638 135.854 37.2628 138.846 36.5409C139.304 36.3704 139.737 36.2065 140.149 36.0753C156.116 30.5992 172.148 25.6077 188.503 22.901C188.928 22.8222 189.386 22.7631 189.838 22.6777C190.211 22.612 190.624 22.4808 190.997 22.4152C192.974 21.8641 196.202 21.4171 198.683 21.4353C199.011 21.409 199.279 21.3695 199.495 21.3432C202.664 20.5492 207.255 22.0985 210.403 20.6694C210.626 20.6692 210.875 20.6626 211.071 20.669C212.761 21.0806 214.443 21.2433 216.159 21.3144C216.296 20.8626 216.578 20.5416 217.527 20.8881C217.927 20.7045 215.005 17.596 215.208 17.5173C215.076 17.2162 214.991 16.9871 214.932 16.7514C214.369 16.7255 213.806 16.6996 213.243 16.6737C212.798 16.674 212.378 16.6677 211.966 16.6875C211.167 16.7207 210.362 16.7277 209.563 16.7609C209.151 16.7808 208.699 16.8661 208.312 16.8794C205.747 18.9695 203.593 19.2588 199.945 17.4733C199.539 17.5194 199.133 17.5654 198.59 17.6181C195.774 18.1566 191.466 18.7351 188.494 18.7564C188.284 18.8089 188.042 18.8418 187.774 18.8812C165.311 22.6453 143.42 30.6913 121.463 38.3641C121.156 38.4691 120.822 38.5805 120.514 38.6855C120.514 38.6855 120.514 38.6855 120.468 38.7248C120.442 38.7313 120.416 38.7379 120.39 38.7445C120.311 38.7642 120.259 38.7773 120.18 38.797C117.41 38.6283 115.572 41.065 113.889 41.0135C113.444 41.1251 113.012 41.289 112.599 41.4202C110.904 41.9842 109.215 42.5744 107.519 43.1385C107.107 43.2696 106.668 43.4074 106.262 43.5648C104.024 44.8493 100.79 45.2701 98.6358 46.0047C98.2168 46.1097 97.7848 46.2736 97.3723 46.4048C96.1088 46.8049 94.8388 47.1788 93.5426 47.5593C93.1236 47.6642 92.685 47.802 92.2529 47.9659C90.4534 50.0032 88.1679 49.2122 85.8765 49.7307C85.4575 49.8357 85.0123 49.9473 84.5933 50.0523C84.1743 50.1573 83.7292 50.2688 83.2971 50.4327C77.3716 50.6652 71.3566 54.7608 66.249 53.9255C65.8823 54.0173 65.5157 54.1092 65.1229 54.2076C64.6974 54.2864 64.2391 54.3456 63.8135 54.4244C58.5104 55.2523 53.1678 55.8118 47.8054 56.0701C47.6485 56.4434 47.1511 56.902 46.3395 57.4394C46.8436 57.3409 48.1529 56.9015 47.937 57.1504C48.4936 57.3727 47.3617 58.7418 47.1975 57.8645C45.1938 57.7543 45.7499 56.8635 45.4614 56.1565C36.8187 56.4297 28.0838 55.8911 19.1978 54.3049C18.8247 54.5932 18.0851 54.9733 17.9215 55.2092C17.1758 56.4536 22.4134 55.5864 22.0801 56.6997L22.0408 56.7652ZM215.195 18.4667C215.831 19.5598 216.119 20.6007 215.006 19.4883C213.911 18.0091 215.293 18.9708 215.195 18.4667ZM162.93 26.6931C163.192 27.7406 166.786 26.1999 162.93 26.6931V26.6931ZM47.1979 58.6437C48.5924 58.3221 48.8937 58.5249 49.6205 58.5376C46.2295 59.777 47.473 58.8531 47.1979 58.6437Z" fill="#3F3F3F"/>
<path d="M18.1941 54.1953C17.8732 54.1366 17.5524 54.0778 17.2315 54.0191C17.0875 54.1108 16.9697 54.196 16.9566 54.255C16.9305 54.3728 17.5525 54.3005 18.1679 54.2019L18.1941 54.1953Z" fill="#3F3F3F"/>
<path d="M227.344 42.4195C227.344 42.4195 227.318 42.4261 227.292 42.4326C227.292 42.4326 227.299 42.4588 227.305 42.485C227.305 42.485 227.305 42.485 227.331 42.4784L227.344 42.4195Z" fill="#3F3F3F"/>
<path d="M33.5629 83.8818C43.5879 84.9043 52.0397 82.6473 62.5359 83.2177C62.9418 83.1717 63.3739 83.119 63.8388 83.086C68.4218 82.4942 72.9785 81.6864 77.5286 80.741C77.9476 80.636 78.3928 80.5245 78.8641 80.4063C93.9343 75.9064 107.774 72.9392 122.183 67.5754C122.392 67.5229 122.615 67.4114 122.818 67.3328C123.021 67.2541 123.25 67.1688 123.472 67.0574C125.206 63.979 127.518 64.7635 131.014 64.4997C131.42 64.3423 131.858 64.2046 132.264 64.0472C147.026 58.873 161.795 53.725 176.774 50.0828C177.193 49.9778 177.638 49.8663 178.057 49.7613C180.923 46.5383 184.315 47.1912 188.414 47.5556C188.833 47.4506 189.272 47.4241 189.698 47.3453C195.236 46.3471 200.788 45.6238 206.393 45.2213C206.629 45.1622 206.877 45.1555 207.12 45.1227C210.903 43.6736 215.187 45.773 219.547 45.1813C219.979 45.1287 220.405 45.0499 220.765 44.9318C221.308 45.2131 221.832 45.4158 222.369 45.5595C221.799 44.1717 221.392 42.9934 222.604 43.8308C221.975 42.7639 221.32 41.8149 220.795 40.9443C220.461 40.9445 220.147 40.9119 219.813 40.9121C219.394 40.9058 218.949 40.906 218.53 40.8997C214.195 40.9283 208.814 41.6646 204.826 41.3001C204.584 41.333 204.361 41.3331 204.086 41.3463C198.881 41.7879 193.715 42.4979 188.576 43.4239C188.235 43.5092 187.993 43.5421 187.725 43.5815C184.039 44.9782 180.969 46.4989 176.89 45.8792C176.471 45.9842 176.025 46.0957 175.606 46.2007C160.693 49.8821 146.003 55.0104 131.293 60.1715C130.985 60.2765 130.756 60.3617 130.527 60.4469C112.617 67.8294 94.7319 73.5357 75.5361 77.01C75.1171 77.1149 74.6326 77.1807 74.2136 77.2857C71.346 77.8373 68.4391 78.343 65.565 78.7571C65.0805 78.8228 64.6222 78.882 64.2228 78.9543C53.983 80.1843 44.4509 82.5729 35.44 80.1552C35.237 80.1226 35.0078 80.0965 34.7328 79.9984C27.6938 79.4523 20.5889 78.3104 13.379 76.4155C13.5696 77.7315 13.7405 79.0802 13.9311 80.3962C20.3029 82.0558 26.6154 83.1458 32.836 83.7578C33.1176 83.7708 33.373 83.7903 33.6611 83.8294L33.5629 83.8818Z" fill="#3F3F3F"/>
<path d="M222.049 41.3804C224.376 44.5547 223.701 44.6402 224.049 45.8055C225.372 45.8637 226.661 45.6797 227.905 45.535C227.905 44.8671 227.872 44.1796 228.075 43.8783C227.609 43.2434 227.236 42.7526 226.915 42.3599C225.514 42.0988 224.164 41.4906 222.678 41.1116C222.776 41.5044 222.455 41.4457 222.017 41.3608L222.049 41.3804Z" fill="#3F3F3F"/>
<path d="M92.9069 101.907C93.3259 101.802 93.7711 101.69 94.2097 101.553C97.2669 100.647 101.575 100.069 104.435 98.6006C104.645 98.5481 104.874 98.4629 105.129 98.3711C107.041 97.7807 108.972 97.1576 110.903 96.5346C111.342 96.3968 111.754 96.2656 112.193 96.1279C114.125 96.0614 116.003 95.0062 117.856 94.1801C118.281 93.99 118.661 93.8392 119.014 93.695C122.267 90.6813 126.706 91.183 129.94 90.0943C130.353 89.9631 130.785 89.7992 131.191 89.6418C141.528 86.0219 151.877 82.3429 162.26 79.1289C162.653 79.0305 163.059 78.8731 163.484 78.683C182.142 73.8406 201.795 67.9696 220.509 68.9022C219.768 67.2788 220.593 67.3504 220.508 66.4534C221.648 68.4498 220.921 68.4371 220.679 68.9152C220.961 68.9282 221.242 68.9411 221.524 68.954C221.917 68.9669 222.336 68.9732 222.729 68.9861C226.258 69.0758 229.794 69.3031 233.369 69.6874C233.578 69.301 234.652 69.9224 234.973 69.536C235.568 68.8023 235.771 67.4992 235.855 66.0587C231.016 65.4066 226.223 65.0491 221.443 64.9666C221.456 65.0189 221.469 65.0713 221.482 65.1237C221.469 65.0713 221.456 65.0189 221.436 64.9404C221.358 64.9601 221.24 64.934 221.155 64.9274C221.076 64.9471 220.958 64.921 220.873 64.9145C220.932 65.2615 220.841 65.4514 220.631 65.5039C220.494 65.2879 220.389 65.0916 220.291 64.9214C220.179 64.9214 220.068 64.9215 219.931 64.9281C215.176 63.8373 209.004 66.8591 204.027 65.7684C203.758 65.8078 203.483 65.8211 203.241 65.854C202.973 65.8934 202.724 65.9001 202.508 65.9264C200.124 65.8557 197.97 66.1449 195.895 66.5259C195.515 66.5653 195.168 66.6245 194.821 66.6836C194.474 66.7427 194.153 66.7953 193.806 66.8544C193.492 66.9331 193.171 66.9857 192.877 67.0317C190.277 66.0968 189.644 69.4561 187.273 68.436C186.847 68.5148 186.396 68.6001 185.97 68.6789C185.551 68.7839 185.125 68.8627 184.7 68.9415C184.49 68.994 184.255 69.0531 184.019 69.1121C183.698 69.0534 183.358 69.0274 182.998 69.0341C182.664 69.0343 182.31 69.0673 181.963 69.1264C174.552 71.54 167.148 73.6458 160.006 75.6861C159.77 75.7451 159.567 75.8238 159.364 75.9025C149.335 79.0836 139.345 82.6445 129.369 86.1464C128.963 86.3038 128.524 86.4415 128.118 86.5989C125.429 89.1932 123.406 90.5628 118.757 89.8909C118.547 89.9434 118.207 90.0287 117.998 90.0812C112.944 91.7929 107.851 93.4588 102.783 95.0069C102.338 95.1184 101.932 95.2758 101.494 95.4135C97.88 96.2078 94.6522 96.6548 91.2418 98.2608C91.0323 98.3133 90.7966 98.3724 90.5347 98.438C66.6392 104.593 42.2834 107.245 16.6719 100.554C16.8625 101.87 17.0335 103.219 17.2241 104.535C43.5494 111.409 68.5205 108.435 93.0509 101.927L92.9069 101.907Z" fill="#3F3F3F"/>
<path d="M243.441 67.3302C243.651 67.9455 243.828 68.5413 243.73 68.8163C243.612 69.1241 242.538 67.7235 242.184 67.7565C241.87 67.8352 242.978 70.0346 242.794 70.1919C242.539 70.395 241.511 69.289 241.026 69.2434C240.404 69.2045 240.273 69.7938 240.287 70.6254C243.103 71.0887 245.925 71.6896 248.774 72.3951C248.597 72.2446 248.446 72.0876 248.322 72.0353C249.212 71.033 249.29 70.6794 250.311 70.0895C250.259 69.88 250.265 69.6836 250.239 69.4675C250.134 69.2712 249.996 69.0552 249.819 68.7934C247.704 68.238 245.582 67.7677 243.474 67.3498L243.441 67.3302Z" fill="#3F3F3F"/>
<path d="M231.818 89.363C231.366 89.3371 230.94 89.3046 230.482 89.2525C230.076 89.2985 229.657 89.2922 229.251 89.2269C229.205 89.3776 229.068 89.3842 228.786 89.1486C227.005 88.8157 225.348 87.8672 223.462 88.117C223.508 88.7456 223.718 89.5836 224.105 90.6833C223.574 89.8979 223.044 89.1125 222.513 88.3271C222.1 88.4582 221.655 88.6811 221.23 88.9825C220.785 88.9828 220.346 89.0092 219.881 89.0422C199.295 89.4136 179.334 94.499 159.571 100.927C159.361 100.979 159.099 101.045 158.87 101.13C155.459 101.512 152.521 104.113 148.704 104.54C148.468 104.599 148.245 104.711 148.036 104.763C147.597 104.901 147.191 105.058 146.753 105.196C141.47 106.993 135.735 108.987 129.896 111.007C129.483 111.138 129.051 111.302 128.645 111.459C125.235 113.288 123.081 113.577 119.919 114.509C119.507 114.64 119.101 114.797 118.695 114.954C118.289 115.112 117.877 115.243 117.471 115.4C117.058 115.532 116.567 115.682 116.155 115.814C114.688 116.292 113.196 116.778 111.729 117.256C111.441 117.329 111.212 117.414 110.983 117.499C101.085 120.981 91.3952 122.296 81.8439 125.274C81.4249 125.379 80.9666 125.438 80.541 125.517C79.3233 125.767 78.0728 125.996 76.842 126.194C76.4426 126.266 76.0171 126.345 75.6111 126.391C69.9866 126.269 64.1293 131.439 58.2872 128.45C57.8747 128.469 57.3508 128.378 56.9383 128.398C44.7993 128.935 32.4368 127.914 19.7784 124.601C19.969 125.917 20.14 127.266 20.3306 128.582C32.4192 131.731 44.2121 132.811 55.8078 132.438C56.0304 132.438 56.2203 132.419 56.4429 132.418C61.9491 131.734 68.4046 130.84 73.4922 131.041C73.9309 131.014 74.3892 130.955 74.8213 130.902C88.0008 129.186 99.7178 123.3 111.601 121.408C112.013 121.277 112.452 121.139 112.897 121.027C114.16 120.627 115.417 120.201 116.681 119.801C117.119 119.663 117.532 119.532 117.964 119.368C118.357 119.158 118.782 118.968 119.175 118.758C119.574 118.575 120 118.385 120.399 118.201C123.528 116.805 126.631 115.304 130.225 114.542C130.461 114.483 130.67 114.431 131.024 114.286C140.929 111.276 151.011 109.417 160.09 104.888C160.529 104.75 160.941 104.619 161.38 104.481C189.071 95.5937 217.144 89.4497 246.835 95.3131C247.836 93.9769 249.394 93.4195 250.395 92.1945C244.128 90.7313 237.914 89.8115 231.785 89.3434L231.818 89.363Z" fill="#3F3F3F"/>
<path d="M251.22 96.274C252.111 96.4962 253.028 96.7117 253.918 96.9339C253.728 95.6179 253.557 94.2692 253.366 92.9532C253.274 92.9205 253.189 92.914 253.098 92.8813C252.561 94.1846 252.012 95.4355 251.22 96.274Z" fill="#3F3F3F"/>
<path d="M230.923 116.668C230.923 116.668 230.805 116.641 230.727 116.661L230.923 116.668Z" fill="#3F3F3F"/>
<path d="M244.983 114.591C230.616 112.235 216.67 113.003 201.651 115.486C201.442 115.538 201.2 115.571 200.984 115.598C190.995 120.828 180.093 121.194 169.821 123.406C169.402 123.511 168.983 123.616 168.597 123.741C166.751 124.259 164.904 124.777 163.052 125.27C162.685 125.361 162.319 125.453 161.926 125.552C158.684 125.167 154.666 127.9 151.327 128.792C150.993 128.904 150.535 129.074 150.227 129.179C148.898 129.651 147.563 130.097 146.234 130.569C145.802 130.733 145.389 130.864 144.957 131.028C142.882 131.632 140.813 132.262 138.725 132.924C138.293 133.088 137.861 133.252 137.455 133.409C135.733 133.757 132.795 136.358 130.005 135.777C129.593 135.908 129.187 136.066 128.748 136.203C117.534 139.987 106.294 144.001 95.0337 147.045C94.8242 147.098 94.5885 147.157 94.3528 147.216C93.9338 147.321 93.4887 147.432 93.0697 147.537C92.834 147.596 92.5983 147.655 92.3626 147.714C89.5281 148.842 86.2938 149.263 83.3869 149.657C83.1512 149.717 82.9155 149.776 82.6667 149.782C81.5799 149.999 80.4866 150.189 79.4194 150.373C79.3408 150.393 79.2885 150.406 79.2099 150.426C78.8957 150.505 78.5683 150.531 78.2213 150.59C81.3719 152.723 76.5591 152.176 79.1661 154.138C71.4906 151.052 81.3657 153.365 75.6875 150.808C74.1423 150.972 72.7544 151.209 71.5563 151.537C71.1242 151.589 70.6593 151.622 70.2272 151.675C69.7951 151.727 69.363 151.78 68.8981 151.813C68.466 151.866 68.0273 151.892 67.569 151.951C63.4111 151.685 59.2999 152.938 55.1619 153.196C56.1312 153.621 57.6309 154.163 58.8098 154.647C57.3694 154.785 57.4549 155.571 57.5536 156.409C64.5399 156.412 71.3559 156.179 78.3022 154.8C78.1712 154.722 78.014 154.65 77.8175 154.532C78.086 154.604 78.3283 154.682 78.5379 154.741C78.8521 154.662 79.1467 154.616 79.461 154.538C79.2449 154.453 78.9502 154.387 78.924 154.394C77.0968 153.766 78.6619 154.014 79.1137 154.152C79.4215 154.269 79.6377 154.354 79.8014 154.452C80.2728 154.334 80.7507 154.242 81.2482 154.118C81.6738 154.039 82.1255 153.953 82.5511 153.875C82.9766 153.796 83.4284 153.71 83.8539 153.632C84.2729 153.527 84.7247 153.441 85.1502 153.362C86.5504 151.397 89.9424 152.05 91.6185 151.964C92.0637 151.853 92.4893 151.774 92.9344 151.662C94.2176 151.341 95.527 151.013 96.8101 150.691C97.2291 150.586 97.6743 150.475 98.1195 150.363C109.073 148.537 119.134 144.485 129.006 140.675C129.412 140.518 129.791 140.367 130.197 140.21C135.238 138.223 140.62 137.487 145.516 134.924C145.935 134.819 146.321 134.694 146.707 134.57C146.943 134.511 147.166 134.399 147.401 134.34C147.637 134.281 147.833 134.176 148.043 134.124C149.653 133.553 151.238 132.989 152.848 132.419C153.26 132.287 153.679 132.071 154.085 131.914C156.055 129.89 158.209 129.6 161.273 129.5C161.686 129.369 162.098 129.238 162.484 129.113C164.9 128.313 167.322 127.539 169.777 126.785C170.013 126.726 170.248 126.667 170.478 126.582C181.456 123.19 192.088 120.638 202.341 119.015C202.524 118.969 202.76 118.91 203.035 118.896C210.924 117.393 218.42 116.544 225.741 116.546C225.479 116.278 225.465 115.669 226.414 114.123C228.331 112.669 225.827 118 229.4 114.155C228.948 114.908 229.092 115.039 228.641 115.792C232.98 112.561 230.737 117.938 233.964 116.267C233.742 116.49 233.572 116.699 233.369 116.889C233.48 116.889 233.598 116.915 233.683 116.922C233.768 116.706 233.906 116.476 233.984 116.345C235.515 114.57 235.523 116.266 234.743 116.044C234.586 116.083 234.2 116.653 234.24 116.699C234.128 116.81 234.069 116.909 234.004 116.981C234.259 117 234.489 117.026 234.744 117.046C236.053 115.382 236.321 116.122 236.74 116.017C236.034 116.75 235.674 116.98 235.373 117.111C237.861 117.378 240.349 117.756 242.838 118.246C243.27 118.305 243.702 118.363 244.134 118.422C244.54 118.487 244.92 118.559 245.326 118.624C247.493 117.72 249.954 116.435 250.557 117.174C250.943 116.716 251.283 116.297 251.604 115.91C249.809 115.525 248.054 115.185 246.28 114.879C245.848 114.82 245.383 114.742 244.977 114.676L244.983 114.591Z" fill="#3F3F3F"/>
<path d="M50.4165 152.909C49.9712 152.798 49.4997 152.694 49.0478 152.556C48.8252 152.556 48.5633 152.511 48.3407 152.511C40.0381 152.142 31.6368 150.936 23.0909 148.708C23.2683 149.971 23.4262 151.267 23.6037 152.531C25.1557 152.949 25.9611 153.054 28.2532 153.759C28.8023 152.063 43.1564 155.146 40.8043 152.535C44.4519 153.43 48.0405 154.312 51.5374 155.161C51.0066 154.487 51.5629 153.93 50.3837 152.89L50.4165 152.909Z" fill="#3F3F3F"/>
</g>
<defs>
<clipPath id="clip0_461_97115">
<rect width="240" height="118.029" fill="white" transform="translate(0 58.3369) rotate(-14.0677)"/>
</clipPath>
</defs>
</svg>
